<svg version="1.1" xmlns="http://www.w3.org/2000/svg" xmlns:xlink="http://www.w3.org/1999/xlink" width="339.2399" height="106.96" viewBox="0,0,339.2399,106.96"><g transform="translate(-70.38025,-126.02)"><g data-paper-data="{&quot;isPaintingLayer&quot;:true}" fill-rule="evenodd" stroke-linejoin="round" stroke-miterlimit="10" stroke-dashoffset="0" style="mix-blend-mode: normal"><path d="M355.40215,229.024l8.496,0.048l0.528,0.528c0.352,0.352 0.528,0.752 0.528,1.2c0,0.48 -0.192,0.88 -0.576,1.2l-0.528,0.48h-8.592c-5.633,0 -8.64,-0.064 -9.024,-0.192c-0.256,-0.096 -0.504,-0.328 -0.744,-0.696c-0.24,-0.368 -0.36,-0.68 -0.36,-0.936c0,-0.224 0.176,-0.536 0.528,-0.936c0.352,-0.4 0.656,-0.616 0.912,-0.648c0.16,-0.032 3.104,-0.048 8.832,-0.048zM175.18615,228.16h17.664l0.528,0.576c0.352,0.352 0.528,0.72 0.528,1.104c0,0.416 -0.176,0.8 -0.528,1.152l-0.528,0.528h-17.712l-0.48,-0.528c-0.352,-0.352 -0.528,-0.736 -0.528,-1.152c0,-0.48 0.176,-0.864 0.528,-1.152zM149.75415,228.16l0.528,0.576c0.384,0.384 0.576,0.8 0.576,1.248c0,0.256 -0.064,0.512 -0.192,0.768c-0.224,0.448 -1.104,0.712 -2.64,0.792c-1.536,0.08 -6.736,0.136 -15.6,0.168l-16.704,0.048l-0.528,-0.48c-0.32,-0.288 -0.48,-0.672 -0.48,-1.152c0,-0.448 0.176,-0.848 0.528,-1.2c0.256,-0.224 0.552,-0.368 0.888,-0.432c0.336,-0.064 1.16,-0.112 2.472,-0.144c3.168,-0.096 8.832,-0.144 16.992,-0.144zM287.67415,211.984h34.224l0.48,0.48l0.48,0.432v17.856l-0.48,0.432l-0.48,0.528h-34.128l-0.528,-0.528c-0.352,-0.352 -0.528,-0.752 -0.528,-1.2c0,-0.448 0.16,-0.816 0.48,-1.104l0.48,-0.528h31.872v-13.056h-31.728l-0.528,-0.528c-0.384,-0.352 -0.576,-0.752 -0.576,-1.2c0,-0.416 0.16,-0.784 0.48,-1.104zM330.49015,196.24c0.352,0 0.736,0.208 1.152,0.624l0.48,0.432l0.048,16.56v7.536c0,6.144 -0.048,9.408 -0.144,9.792c-0.256,0.832 -0.768,1.248 -1.536,1.248c-0.576,0 -1.04,-0.272 -1.392,-0.816c-0.192,-0.32 -0.304,-1.232 -0.336,-2.736c-0.032,-1.504 -0.048,-6.336 -0.048,-14.496c0,-11.104 0.08,-16.832 0.24,-17.184c0.192,-0.352 0.464,-0.608 0.816,-0.768c0.319,-0.128 0.56,-0.192 0.72,-0.192zM355.06615,196.144c5.44,0 8.4,0.096 8.88,0.288c0.672,0.288 1.008,0.784 1.008,1.488c0,0.672 -0.336,1.152 -1.008,1.44c-0.48,0.192 -3.424,0.288 -8.832,0.288c-5.44,0 -8.4,-0.096 -8.88,-0.288c-0.705,-0.288 -1.056,-0.784 -1.056,-1.488c0,-0.672 0.336,-1.152 1.008,-1.44c0.48,-0.192 3.439,-0.288 8.88,-0.288zM287.67415,195.568h34.224l0.48,0.48c0.352,0.352 0.528,0.736 0.528,1.152c0,0.416 -0.208,0.8 -0.624,1.152l-0.624,0.528h-33.792l-0.576,-0.576c-0.384,-0.384 -0.576,-0.784 -0.576,-1.2c0,-0.384 0.16,-0.736 0.48,-1.056zM202.44215,195.568c0.896,0 1.456,0.528 1.68,1.584c0.032,0.192 0.048,3.408 0.048,9.648v7.44l-0.048,16.416l-0.48,0.528c-0.352,0.352 -0.752,0.528 -1.2,0.528c-0.896,0 -1.456,-0.416 -1.68,-1.248c-0.032,-0.16 -0.048,-5.888 -0.048,-17.184l0.048,-16.8l0.576,-0.48c0.32,-0.288 0.688,-0.432 1.104,-0.432zM235.22615,195.52c0.352,0 0.736,0.16 1.152,0.48l0.528,0.48l0.096,16.8c0,11.136 -0.032,16.864 -0.096,17.184c-0.096,0.384 -0.296,0.688 -0.6,0.912c-0.304,0.224 -0.648,0.336 -1.032,0.336c-0.448,0 -0.848,-0.176 -1.2,-0.528l-0.48,-0.528l-0.048,-16.224v-7.392c0,-6.24 0.016,-9.472 0.048,-9.696c0.128,-0.64 0.32,-1.088 0.576,-1.344c0.32,-0.32 0.672,-0.48 1.056,-0.48zM264.93015,195.376h7.968c2.848,0 4.584,0.024 5.208,0.072c0.624,0.048 1.032,0.152 1.224,0.312c0.352,0.32 0.528,0.72 0.528,1.2c0,0.384 -0.64,1.248 -1.92,2.592c-1.28,1.344 -6.096,6.224 -14.448,14.64c-2.56,2.592 -5.256,5.312 -8.088,8.16c-2.832,2.848 -4.984,5.008 -6.456,6.48c-1.472,1.472 -2.256,2.256 -2.352,2.352c-0.416,0.352 -0.832,0.528 -1.248,0.528c-0.448,0 -0.832,-0.168 -1.152,-0.504c-0.32,-0.336 -0.48,-0.76 -0.48,-1.272c0,-0.544 7.088,-7.856 21.264,-21.936c6.016,-6.016 9.024,-9.072 9.024,-9.168c0,-0.064 -2.672,-0.096 -8.016,-0.096h-6.576l-14.64,0.096l-0.528,-0.576c-0.352,-0.352 -0.528,-0.688 -0.528,-1.008c0,-0.32 0.176,-0.688 0.528,-1.104l0.48,-0.576l3.168,-0.096c0.096,0 2.2,-0.016 6.312,-0.048c4.112,-0.032 7.688,-0.048 10.728,-0.048zM158.57815,195.376h17.952l0.96,0.96v15.408h13.104v-15.408l0.48,-0.48c0.32,-0.32 0.704,-0.48 1.152,-0.48c0.48,0 0.88,0.16 1.2,0.48l0.48,0.48v17.712l-1.056,1.056h-17.712l-0.96,-0.96v-15.456h-13.104v31.584l-0.528,0.624c-0.32,0.416 -0.704,0.624 -1.152,0.624c-0.416,0 -0.792,-0.16 -1.128,-0.48c-0.336,-0.32 -0.504,-0.672 -0.504,-1.056c0,-0.032 0,-0.36 0,-0.984c0,-0.624 -0.008,-1.48 -0.024,-2.568c-0.016,-1.088 -0.024,-2.304 -0.024,-3.648c0,-1.344 0,-2.904 0,-4.68c0,-1.776 0,-3.512 0,-5.208v-16.56l0.432,-0.528zM144.18615,195.376h5.472l0.624,0.48c0.416,0.32 0.624,0.72 0.624,1.2c0,0.416 -0.16,0.784 -0.48,1.104l-0.48,0.48l-9.84,0.096c-5.408,0.096 -11.12,0.144 -17.136,0.144h-7.296l-0.48,-0.48c-0.32,-0.32 -0.48,-0.736 -0.48,-1.248c0,-0.256 0.048,-0.496 0.144,-0.72c0.128,-0.384 0.736,-0.608 1.824,-0.672c1.088,-0.064 4.608,-0.128 10.56,-0.192c6.24,-0.032 11.888,-0.096 16.944,-0.192z" fill="#ba6f55" stroke="#ba6f55" stroke-width="1" stroke-linecap="round" stroke-dasharray="7,4"/><path d="M398.56815,161.168l8.496,0.048l0.528,0.528c0.352,0.352 0.528,0.752 0.528,1.2c0,0.48 -0.192,0.88 -0.576,1.2l-0.528,0.48h-8.592c-5.632,0 -8.64,-0.064 -9.024,-0.192c-0.256,-0.096 -0.504,-0.328 -0.744,-0.696c-0.24,-0.368 -0.36,-0.68 -0.36,-0.936c0,-0.224 0.176,-0.536 0.528,-0.936c0.352,-0.4 0.656,-0.616 0.912,-0.648c0.16,-0.032 3.104,-0.048 8.832,-0.048zM72.84025,160.304h34.2239l0.48,0.528c0.352,0.288 0.528,0.672 0.528,1.152c0,0.416 -0.176,0.8 -0.528,1.152l-0.528,0.528h-34.0799l-0.528,-0.528c-0.352,-0.352 -0.528,-0.752 -0.528,-1.2c0,-0.416 0.16,-0.784 0.48,-1.104zM173.52815,147.44c-0.512,0 -0.784,0.048 -0.816,0.144c0,0.064 0.032,0.128 0.096,0.192c0.256,0.512 0.704,0.944 1.344,1.296c0.096,0.064 0.16,0.016 0.192,-0.144c0.032,-0.128 0.048,-0.336 0.048,-0.624v-0.864zM329.84015,144.128h34.224l0.48,0.48l0.48,0.432v17.856l-0.48,0.432l-0.48,0.528h-34.128l-0.528,-0.528c-0.352,-0.352 -0.528,-0.752 -0.528,-1.2c0,-0.448 0.16,-0.816 0.48,-1.104l0.48,-0.528h31.872v-13.056h-31.728l-0.528,-0.528c-0.384,-0.352 -0.576,-0.752 -0.576,-1.2c0,-0.416 0.16,-0.784 0.48,-1.104zM373.65615,128.384c0.352,0 0.736,0.208 1.152,0.624l0.48,0.432l0.048,16.56v7.536c0,6.144 -0.048,9.408 -0.144,9.792c-0.256,0.832 -0.768,1.248 -1.536,1.248c-0.576,0 -1.04,-0.272 -1.392,-0.816c-0.192,-0.32 -0.304,-1.232 -0.336,-2.736c-0.032,-1.504 -0.048,-6.336 -0.048,-14.496c0,-11.104 0.08,-16.832 0.24,-17.184c0.192,-0.352 0.464,-0.608 0.816,-0.768c0.32,-0.128 0.56,-0.192 0.72,-0.192zM398.23215,128.288c5.44,0 8.4,0.096 8.88,0.288c0.672,0.288 1.008,0.784 1.008,1.488c0,0.672 -0.336,1.152 -1.008,1.44c-0.48,0.192 -3.424,0.288 -8.832,0.288c-5.44,0 -8.4,-0.096 -8.88,-0.288c-0.704,-0.288 -1.056,-0.784 -1.056,-1.488c0,-0.672 0.336,-1.152 1.008,-1.44c0.48,-0.192 3.44,-0.288 8.88,-0.288zM116.51215,128c0.448,0 0.864,0.192 1.248,0.576l0.432,0.528v29.376l7.008,-7.008c3.168,-3.2 5.16,-5.176 5.976,-5.928c0.816,-0.752 1.368,-1.128 1.656,-1.128c0.288,0 0.824,0.36 1.608,1.08c0.784,0.72 2.744,2.648 5.88,5.784c4.608,4.608 6.96,6.912 7.056,6.912c0.096,0 0.144,-2.096 0.144,-6.288c0,-4.192 0.064,-6.416 0.192,-6.672c0.256,-0.544 0.8,-0.816 1.632,-0.816c0.192,0 0.32,0.016 0.384,0.048c0.448,0.16 0.72,0.416 0.816,0.768c0.192,0.672 0.288,3.728 0.288,9.168v8.832l-0.624,0.48c-0.384,0.32 -0.672,0.48 -0.864,0.48c-0.416,0 -1.088,-0.432 -2.016,-1.296c-0.928,-0.864 -3.12,-3.024 -6.576,-6.48c-5.216,-5.216 -7.856,-7.824 -7.92,-7.824c-0.032,0 -2.656,2.608 -7.872,7.824c-3.456,3.456 -5.656,5.624 -6.6,6.504c-0.944,0.88 -1.624,1.32 -2.04,1.32c-0.192,0 -0.48,-0.192 -0.864,-0.576l-0.576,-0.576v-16.992v-4.08c0,-6.688 0.04,-10.632 0.12,-11.832c0.08,-1.2 0.344,-1.88 0.792,-2.04c0.032,0 0.056,-0.008 0.072,-0.024c0.016,-0.016 0.04,-0.024 0.072,-0.024c0.128,-0.064 0.32,-0.096 0.576,-0.096zM329.84015,127.712h34.224l0.48,0.48c0.352,0.352 0.528,0.736 0.528,1.152c0,0.416 -0.208,0.8 -0.624,1.152l-0.624,0.528h-33.792l-0.576,-0.576c-0.384,-0.384 -0.576,-0.784 -0.576,-1.2c0,-0.384 0.16,-0.736 0.48,-1.056zM244.60815,127.712c0.896,0 1.456,0.528 1.68,1.584c0.032,0.192 0.048,3.408 0.048,9.648v7.44l-0.048,16.416l-0.48,0.528c-0.352,0.352 -0.752,0.528 -1.2,0.528c-0.896,0 -1.456,-0.416 -1.68,-1.248c-0.032,-0.16 -0.048,-5.888 -0.048,-17.184l0.048,-16.8l0.576,-0.48c0.32,-0.288 0.688,-0.432 1.104,-0.432zM158.93615,127.712h17.808l0.96,0.96v15.456h15.456l0.48,0.48l0.48,0.432v17.856l-0.48,0.432c-0.352,0.352 -0.736,0.528 -1.152,0.528c-0.448,0 -0.848,-0.208 -1.2,-0.624l-0.48,-0.624v-15.168h-13.104v3.312c0,1.632 -0.024,2.616 -0.072,2.952c-0.048,0.336 -0.184,0.616 -0.408,0.84c-0.32,0.32 -0.72,0.48 -1.2,0.48c-0.352,0 -0.768,-0.2 -1.248,-0.6c-0.48,-0.4 -1.664,-1.544 -3.552,-3.432c-2.72,-2.656 -4.176,-4.176 -4.368,-4.56c-0.128,-0.224 -0.192,-0.464 -0.192,-0.72c0,-0.416 0.176,-0.8 0.528,-1.152c0.256,-0.224 1.504,-0.368 3.744,-0.432l3.36,-0.096c0,-1.44 0.016,-3.608 0.048,-6.504c0.032,-2.896 0.048,-5.064 0.048,-6.504h-15.36l-0.528,-0.528c-0.352,-0.352 -0.528,-0.752 -0.528,-1.2c0,-0.448 0.16,-0.816 0.48,-1.104zM277.39215,127.664c0.352,0 0.736,0.16 1.152,0.48l0.528,0.48l0.096,16.8c0,11.136 -0.032,16.864 -0.096,17.184c-0.096,0.384 -0.296,0.688 -0.6,0.912c-0.304,0.224 -0.648,0.336 -1.032,0.336c-0.448,0 -0.848,-0.176 -1.2,-0.528l-0.48,-0.528l-0.048,-16.224v-7.392c0,-6.24 0.016,-9.472 0.048,-9.696c0.128,-0.64 0.32,-1.088 0.576,-1.344c0.32,-0.32 0.672,-0.48 1.056,-0.48zM223.34415,127.568h3.984l8.784,0.048l0.48,0.528c0.288,0.32 0.432,0.688 0.432,1.104c0,0.416 -0.16,0.784 -0.48,1.104l-0.48,0.48l-6.48,0.048c-2.368,0.032 -4.928,0.048 -7.68,0.048c-1.312,0 -2.232,-0.016 -2.76,-0.048c-0.528,-0.032 -0.84,-0.072 -0.936,-0.12c-0.096,-0.048 -0.224,-0.152 -0.384,-0.312c-0.352,-0.32 -0.528,-0.736 -0.528,-1.248c0,-0.672 0.304,-1.168 0.912,-1.488c0.192,-0.096 1.904,-0.144 5.136,-0.144zM202.75215,127.568c0.48,0.128 0.8,0.304 0.96,0.528c0.192,0.192 0.312,0.688 0.36,1.488c0.048,0.8 0.088,3.008 0.12,6.624l0.048,7.68l15.936,0.048l15.936,0.096l0.48,0.528l0.432,0.528v17.568c-0.096,0.128 -0.248,0.312 -0.456,0.552c-0.208,0.24 -0.36,0.424 -0.456,0.552h-34.176l-0.528,-0.48c-0.352,-0.32 -0.528,-0.72 -0.528,-1.2c0,-0.48 0.176,-0.88 0.528,-1.2l0.528,-0.48c3.52,0 8.816,-0.016 15.888,-0.048c7.072,-0.032 12.368,-0.048 15.888,-0.048v-12.864h-31.632l-0.576,-0.576l-0.624,-0.528v-17.76l0.624,-0.528c0.448,-0.384 0.864,-0.544 1.248,-0.48zM307.09615,127.52h7.968c2.848,0 4.584,0.024 5.208,0.072c0.624,0.048 1.032,0.152 1.224,0.312c0.352,0.32 0.528,0.72 0.528,1.2c0,0.384 -0.64,1.248 -1.92,2.592c-1.28,1.344 -6.096,6.224 -14.448,14.64c-2.56,2.592 -5.256,5.312 -8.088,8.16c-2.832,2.848 -4.984,5.008 -6.456,6.48c-1.472,1.472 -2.256,2.256 -2.352,2.352c-0.416,0.352 -0.832,0.528 -1.248,0.528c-0.448,0 -0.832,-0.168 -1.152,-0.504c-0.32,-0.336 -0.48,-0.76 -0.48,-1.272c0,-0.544 7.088,-7.856 21.264,-21.936c6.016,-6.016 9.024,-9.072 9.024,-9.168c0,-0.064 -2.672,-0.096 -8.016,-0.096h-6.576l-14.64,0.096l-0.528,-0.576c-0.352,-0.352 -0.528,-0.688 -0.528,-1.008c0,-0.32 0.176,-0.688 0.528,-1.104l0.48,-0.576l3.168,-0.096c0.096,0 2.2,-0.016 6.312,-0.048c4.112,-0.032 7.688,-0.048 10.728,-0.048zM73.41625,127.52c0.8,0 1.296,0.248 1.488,0.744c0.192,0.496 0.288,1.736 0.288,3.72v3.12h31.8239l0.528,0.528c0.352,0.256 0.528,0.624 0.528,1.104c0,0.448 -0.176,0.848 -0.528,1.2l-0.528,0.528h-31.8239v5.424h31.8719l0.48,0.528c0.32,0.32 0.48,0.704 0.48,1.152c0,0.448 -0.176,0.832 -0.528,1.152l-0.576,0.528h-34.0799l-0.96,-0.96v-17.808l0.48,-0.48c0.32,-0.32 0.672,-0.48 1.056,-0.48z" fill="#55a2ba" stroke-opacity="0.2" stroke="#55a2ba" stroke-width="3" stroke-linecap="butt" stroke-dasharray=""/><path d="M398.56815,161.168l8.496,0.048l0.528,0.528c0.352,0.352 0.528,0.752 0.528,1.2c0,0.48 -0.192,0.88 -0.576,1.2l-0.528,0.48h-8.592c-5.632,0 -8.64,-0.064 -9.024,-0.192c-0.256,-0.096 -0.504,-0.328 -0.744,-0.696c-0.24,-0.368 -0.36,-0.68 -0.36,-0.936c0,-0.224 0.176,-0.536 0.528,-0.936c0.352,-0.4 0.656,-0.616 0.912,-0.648c0.16,-0.032 3.104,-0.048 8.832,-0.048zM72.83985,160.304h34.2243l0.48,0.528c0.352,0.288 0.528,0.672 0.528,1.152c0,0.416 -0.176,0.8 -0.528,1.152l-0.528,0.528h-34.0803l-0.528,-0.528c-0.352,-0.352 -0.528,-0.752 -0.528,-1.2c0,-0.416 0.16,-0.784 0.48,-1.104zM173.52815,147.44c-0.512,0 -0.784,0.048 -0.816,0.144c0,0.064 0.032,0.128 0.096,0.192c0.256,0.512 0.704,0.944 1.344,1.296c0.096,0.064 0.16,0.016 0.192,-0.144c0.032,-0.128 0.048,-0.336 0.048,-0.624v-0.864zM329.84015,144.128h34.224l0.48,0.48l0.48,0.432v17.856l-0.48,0.432l-0.48,0.528h-34.128l-0.528,-0.528c-0.352,-0.352 -0.528,-0.752 -0.528,-1.2c0,-0.448 0.16,-0.816 0.48,-1.104l0.48,-0.528h31.872v-13.056h-31.728l-0.528,-0.528c-0.384,-0.352 -0.576,-0.752 -0.576,-1.2c0,-0.416 0.16,-0.784 0.48,-1.104zM373.65615,128.384c0.352,0 0.736,0.208 1.152,0.624l0.48,0.432l0.048,16.56v7.536c0,6.144 -0.048,9.408 -0.144,9.792c-0.256,0.832 -0.768,1.248 -1.536,1.248c-0.576,0 -1.04,-0.272 -1.392,-0.816c-0.192,-0.32 -0.304,-1.232 -0.336,-2.736c-0.032,-1.504 -0.048,-6.336 -0.048,-14.496c0,-11.104 0.08,-16.832 0.24,-17.184c0.192,-0.352 0.464,-0.608 0.816,-0.768c0.32,-0.128 0.56,-0.192 0.72,-0.192zM398.23215,128.288c5.44,0 8.4,0.096 8.88,0.288c0.672,0.288 1.008,0.784 1.008,1.488c0,0.672 -0.336,1.152 -1.008,1.44c-0.48,0.192 -3.424,0.288 -8.832,0.288c-5.44,0 -8.4,-0.096 -8.88,-0.288c-0.704,-0.288 -1.056,-0.784 -1.056,-1.488c0,-0.672 0.336,-1.152 1.008,-1.44c0.48,-0.192 3.44,-0.288 8.88,-0.288zM116.51215,128c0.448,0 0.864,0.192 1.248,0.576l0.432,0.528v29.376l7.008,-7.008c3.168,-3.2 5.16,-5.176 5.976,-5.928c0.816,-0.752 1.368,-1.128 1.656,-1.128c0.288,0 0.824,0.36 1.608,1.08c0.784,0.72 2.744,2.648 5.88,5.784c4.608,4.608 6.96,6.912 7.056,6.912c0.096,0 0.144,-2.096 0.144,-6.288c0,-4.192 0.064,-6.416 0.192,-6.672c0.256,-0.544 0.8,-0.816 1.632,-0.816c0.192,0 0.32,0.016 0.384,0.048c0.448,0.16 0.72,0.416 0.816,0.768c0.192,0.672 0.288,3.728 0.288,9.168v8.832l-0.624,0.48c-0.384,0.32 -0.672,0.48 -0.864,0.48c-0.416,0 -1.088,-0.432 -2.016,-1.296c-0.928,-0.864 -3.12,-3.024 -6.576,-6.48c-5.216,-5.216 -7.856,-7.824 -7.92,-7.824c-0.032,0 -2.656,2.608 -7.872,7.824c-3.456,3.456 -5.656,5.624 -6.6,6.504c-0.944,0.88 -1.624,1.32 -2.04,1.32c-0.192,0 -0.48,-0.192 -0.864,-0.576l-0.576,-0.576v-16.992v-4.08c0,-6.688 0.04,-10.632 0.12,-11.832c0.08,-1.2 0.344,-1.88 0.792,-2.04c0.032,0 0.056,-0.008 0.072,-0.024c0.016,-0.016 0.04,-0.024 0.072,-0.024c0.128,-0.064 0.32,-0.096 0.576,-0.096zM329.84015,127.712h34.224l0.48,0.48c0.352,0.352 0.528,0.736 0.528,1.152c0,0.416 -0.208,0.8 -0.624,1.152l-0.624,0.528h-33.792l-0.576,-0.576c-0.384,-0.384 -0.576,-0.784 -0.576,-1.2c0,-0.384 0.16,-0.736 0.48,-1.056zM244.60815,127.712c0.896,0 1.456,0.528 1.68,1.584c0.032,0.192 0.048,3.408 0.048,9.648v7.44l-0.048,16.416l-0.48,0.528c-0.352,0.352 -0.752,0.528 -1.2,0.528c-0.896,0 -1.456,-0.416 -1.68,-1.248c-0.032,-0.16 -0.048,-5.888 -0.048,-17.184l0.048,-16.8l0.576,-0.48c0.32,-0.288 0.688,-0.432 1.104,-0.432zM158.93615,127.712h17.808l0.96,0.96v15.456h15.456l0.48,0.48l0.48,0.432v17.856l-0.48,0.432c-0.352,0.352 -0.736,0.528 -1.152,0.528c-0.448,0 -0.848,-0.208 -1.2,-0.624l-0.48,-0.624v-15.168h-13.104v3.312c0,1.632 -0.024,2.616 -0.072,2.952c-0.048,0.336 -0.184,0.616 -0.408,0.84c-0.32,0.32 -0.72,0.48 -1.2,0.48c-0.352,0 -0.768,-0.2 -1.248,-0.6c-0.48,-0.4 -1.664,-1.544 -3.552,-3.432c-2.72,-2.656 -4.176,-4.176 -4.368,-4.56c-0.128,-0.224 -0.192,-0.464 -0.192,-0.72c0,-0.416 0.176,-0.8 0.528,-1.152c0.256,-0.224 1.504,-0.368 3.744,-0.432l3.36,-0.096c0,-1.44 0.016,-3.608 0.048,-6.504c0.032,-2.896 0.048,-5.064 0.048,-6.504h-15.36l-0.528,-0.528c-0.352,-0.352 -0.528,-0.752 -0.528,-1.2c0,-0.448 0.16,-0.816 0.48,-1.104zM277.39215,127.664c0.352,0 0.736,0.16 1.152,0.48l0.528,0.48l0.096,16.8c0,11.136 -0.032,16.864 -0.096,17.184c-0.096,0.384 -0.296,0.688 -0.6,0.912c-0.304,0.224 -0.648,0.336 -1.032,0.336c-0.448,0 -0.848,-0.176 -1.2,-0.528l-0.48,-0.528l-0.048,-16.224v-7.392c0,-6.24 0.016,-9.472 0.048,-9.696c0.128,-0.64 0.32,-1.088 0.576,-1.344c0.32,-0.32 0.672,-0.48 1.056,-0.48zM223.34415,127.568h3.984l8.784,0.048l0.48,0.528c0.288,0.32 0.432,0.688 0.432,1.104c0,0.416 -0.16,0.784 -0.48,1.104l-0.48,0.48l-6.48,0.048c-2.368,0.032 -4.928,0.048 -7.68,0.048c-1.312,0 -2.232,-0.016 -2.76,-0.048c-0.528,-0.032 -0.84,-0.072 -0.936,-0.12c-0.096,-0.048 -0.224,-0.152 -0.384,-0.312c-0.352,-0.32 -0.528,-0.736 -0.528,-1.248c0,-0.672 0.304,-1.168 0.912,-1.488c0.192,-0.096 1.904,-0.144 5.136,-0.144zM202.75215,127.568c0.48,0.128 0.8,0.304 0.96,0.528c0.192,0.192 0.312,0.688 0.36,1.488c0.048,0.8 0.088,3.008 0.12,6.624l0.048,7.68l15.936,0.048l15.936,0.096l0.48,0.528l0.432,0.528v17.568c-0.096,0.128 -0.248,0.312 -0.456,0.552c-0.208,0.24 -0.36,0.424 -0.456,0.552h-34.176l-0.528,-0.48c-0.352,-0.32 -0.528,-0.72 -0.528,-1.2c0,-0.48 0.176,-0.88 0.528,-1.2l0.528,-0.48c3.52,0 8.816,-0.016 15.888,-0.048c7.072,-0.032 12.368,-0.048 15.888,-0.048v-12.864h-31.632l-0.576,-0.576l-0.624,-0.528v-17.76l0.624,-0.528c0.448,-0.384 0.864,-0.544 1.248,-0.48zM307.09615,127.52h7.968c2.848,0 4.584,0.024 5.208,0.072c0.624,0.048 1.032,0.152 1.224,0.312c0.352,0.32 0.528,0.72 0.528,1.2c0,0.384 -0.64,1.248 -1.92,2.592c-1.28,1.344 -6.096,6.224 -14.448,14.64c-2.56,2.592 -5.256,5.312 -8.088,8.16c-2.832,2.848 -4.984,5.008 -6.456,6.48c-1.472,1.472 -2.256,2.256 -2.352,2.352c-0.416,0.352 -0.832,0.528 -1.248,0.528c-0.448,0 -0.832,-0.168 -1.152,-0.504c-0.32,-0.336 -0.48,-0.76 -0.48,-1.272c0,-0.544 7.088,-7.856 21.264,-21.936c6.016,-6.016 9.024,-9.072 9.024,-9.168c0,-0.064 -2.672,-0.096 -8.016,-0.096h-6.576l-14.64,0.096l-0.528,-0.576c-0.352,-0.352 -0.528,-0.688 -0.528,-1.008c0,-0.32 0.176,-0.688 0.528,-1.104l0.48,-0.576l3.168,-0.096c0.096,0 2.2,-0.016 6.312,-0.048c4.112,-0.032 7.688,-0.048 10.728,-0.048zM73.41585,127.52c0.8,0 1.296,0.248 1.488,0.744c0.192,0.496 0.288,1.736 0.288,3.72v3.12h31.8243l0.528,0.528c0.352,0.256 0.528,0.624 0.528,1.104c0,0.448 -0.176,0.848 -0.528,1.2l-0.528,0.528h-31.8243v5.424h31.8723l0.48,0.528c0.32,0.32 0.48,0.704 0.48,1.152c0,0.448 -0.176,0.832 -0.528,1.152l-0.576,0.528h-34.0803l-0.96,-0.96v-17.808l0.48,-0.48c0.32,-0.32 0.672,-0.48 1.056,-0.48z" fill="#55a2ba" stroke="#8dc1d1" stroke-width="1" stroke-linecap="butt" stroke-dasharray=""/></g></g></svg>