<svg version="1.1" xmlns="http://www.w3.org/2000/svg" xmlns:xlink="http://www.w3.org/1999/xlink" width="236.048" height="277.72" viewBox="0.25,0.25,236.048,277.72"><g transform="translate(-121.726,-40.89)"><g data-paper-data="{&quot;isPaintingLayer&quot;:true}" fill="#333333" fill-rule="evenodd" stroke="#000000" stroke-width="0" stroke-linecap="butt" stroke-linejoin="round" stroke-miterlimit="10" stroke-dasharray="" stroke-dashoffset="0" style="mix-blend-mode: normal"><path d="M124.52,51.3349l-0.408,0.024l-0.48,0.024v6.432h7.08c1.44,-1.44 2.52,-2.512 3.24,-3.216c-0.352,-0.352 -0.892,-0.884 -1.62,-1.596c-0.728,-0.712 -1.268,-1.244 -1.62,-1.596l-3.072,-0.048c-0.288,0 -0.696,-0.004 -1.224,-0.012c-0.528,-0.008 -0.888,-0.012 -1.08,-0.012c-0.256,0 -0.528,0 -0.816,0zM165.456,49.6309h17.112l0.24,0.24l0.24,0.216v8.928l-0.24,0.216l-0.24,0.264h-17.064l-0.264,-0.264c-0.176,-0.176 -0.264,-0.376 -0.264,-0.6c0,-0.224 0.08,-0.408 0.24,-0.552l0.24,-0.264h15.936v-6.528h-15.864l-0.264,-0.264c-0.192,-0.176 -0.288,-0.376 -0.288,-0.6c0,-0.208 0.08,-0.392 0.24,-0.552zM196.096,45.2149h8.472l0.24,0.264l0.24,0.216v5.064c-0.112,0.128 -0.28,0.304 -0.504,0.528h-7.704v2.136h7.704c0.112,0.096 0.28,0.256 0.504,0.48v5.112l-0.24,0.216c-0.16,0.16 -0.344,0.24 -0.552,0.24c-0.208,0 -0.4,-0.088 -0.576,-0.264l-0.288,-0.288v-3.84h-3.84c-2.56,0 -3.888,-0.04 -3.984,-0.12c-0.16,-0.128 -0.264,-0.316 -0.312,-0.564c-0.048,-0.248 -0.072,-0.764 -0.072,-1.548v-1.56h-6.552v7.68l-0.288,0.264c-0.208,0.16 -0.384,0.24 -0.528,0.24c-0.144,0 -0.32,-0.08 -0.528,-0.24l-0.312,-0.264v-8.88c0.224,-0.192 0.384,-0.344 0.48,-0.456h15.936v-2.736h-15.864l-0.264,-0.264c-0.192,-0.16 -0.288,-0.36 -0.288,-0.6c0,-0.288 0.152,-0.52 0.456,-0.696c0.16,-0.08 3.048,-0.12 8.664,-0.12zM187.456,41.4229h17.112l0.24,0.24c0.16,0.16 0.24,0.344 0.24,0.552c0,0.24 -0.104,0.44 -0.312,0.6l-0.288,0.264c-1.888,0 -4.72,-0.008 -8.496,-0.024c-3.776,-0.016 -6.608,-0.024 -8.496,-0.024l-0.24,-0.288c-0.16,-0.208 -0.24,-0.392 -0.24,-0.552c0,-0.192 0.08,-0.368 0.24,-0.528zM165.456,41.4229h17.112l0.24,0.24c0.176,0.176 0.264,0.368 0.264,0.576c0,0.208 -0.104,0.4 -0.312,0.576l-0.312,0.264h-16.896l-0.288,-0.288c-0.192,-0.192 -0.288,-0.392 -0.288,-0.6c0,-0.192 0.08,-0.368 0.24,-0.528zM144.84,41.4229c0.448,0 0.728,0.264 0.84,0.792c0.016,0.096 0.024,1.704 0.024,4.824v3.72l-0.024,8.208l-0.24,0.264c-0.176,0.176 -0.376,0.264 -0.6,0.264c-0.448,0 -0.728,-0.208 -0.84,-0.624c-0.016,-0.08 -0.024,-2.944 -0.024,-8.592l0.024,-8.4l0.288,-0.24c0.16,-0.144 0.344,-0.216 0.552,-0.216zM122.552,41.4229h16.968l0.264,0.24c0.176,0.144 0.264,0.344 0.264,0.6c0,0.192 -0.064,0.368 -0.192,0.528l-0.192,0.24c-1.776,0 -4.44,0.016 -7.992,0.048c-3.552,0.032 -6.216,0.048 -7.992,0.048c-0.016,0.72 -0.024,1.804 -0.024,3.252c0,1.448 -0.008,2.532 -0.024,3.252h3.768c2.528,0 3.856,0.032 3.984,0.096c0.08,0.032 0.744,0.656 1.992,1.872l1.776,1.776l1.896,-1.872c0.816,-0.8 1.348,-1.308 1.596,-1.524c0.248,-0.216 0.452,-0.324 0.612,-0.324c0.096,0 0.224,0.04 0.384,0.12c0.272,0.144 0.408,0.392 0.408,0.744c0,0.144 -0.112,0.348 -0.336,0.612c-0.224,0.264 -0.728,0.788 -1.512,1.572l-1.872,1.848l1.872,1.872c0.896,0.912 1.428,1.468 1.596,1.668c0.168,0.2 0.252,0.388 0.252,0.564c0,0.56 -0.272,0.84 -0.816,0.84c-0.192,0 -0.388,-0.084 -0.588,-0.252c-0.2,-0.168 -0.756,-0.708 -1.668,-1.62l-1.872,-1.848c-0.832,0.816 -2.064,2.056 -3.696,3.72h-4.416c-2.96,0 -4.496,-0.032 -4.608,-0.096c-0.144,-0.064 -0.248,-0.168 -0.312,-0.312c-0.064,-0.112 -0.096,-2.992 -0.096,-8.64v-8.472c0.256,-0.256 0.448,-0.44 0.576,-0.552zM161.232,41.3989c0.176,0 0.368,0.08 0.576,0.24l0.264,0.24l0.048,8.4c0,5.568 -0.016,8.432 -0.048,8.592c-0.048,0.192 -0.148,0.344 -0.3,0.456c-0.152,0.112 -0.324,0.168 -0.516,0.168c-0.224,0 -0.424,-0.088 -0.6,-0.264l-0.24,-0.264l-0.024,-8.112v-3.696c0,-3.12 0.008,-4.736 0.024,-4.848c0.064,-0.32 0.16,-0.544 0.288,-0.672c0.16,-0.16 0.336,-0.24 0.528,-0.24zM208.744,41.3029c0.288,0 0.504,0.088 0.648,0.264c0.112,0.112 0.18,0.252 0.204,0.42c0.024,0.168 0.036,0.66 0.036,1.476v1.656h7.704l0.24,0.216c0.192,0.176 0.288,0.384 0.288,0.624c0,0.192 -0.072,0.376 -0.216,0.552l-0.168,0.216l-3.912,0.072l-3.888,0.048v2.616l6.072,0.048l6.096,0.072l2.04,2.04c1.376,1.376 2.096,2.176 2.16,2.4c0.064,0.208 0.096,0.88 0.096,2.016c0,1.632 -0.048,2.568 -0.144,2.808c-0.144,0.368 -0.384,0.552 -0.72,0.552c-0.208,0 -0.4,-0.08 -0.576,-0.24l-0.264,-0.24l-0.024,-2.256l-0.048,-2.232c-0.736,-0.72 -1.824,-1.8 -3.264,-3.24h-5.712l-5.712,0.048v3.36c0,2.208 -0.012,3.48 -0.036,3.816c-0.024,0.336 -0.108,0.576 -0.252,0.72c-0.16,0.16 -0.344,0.24 -0.552,0.24c-0.208,0 -0.4,-0.088 -0.576,-0.264l-0.288,-0.288v-8.424c0,-5.6 0.048,-8.496 0.144,-8.688c0.096,-0.192 0.184,-0.304 0.264,-0.336c0.096,-0.048 0.216,-0.072 0.36,-0.072z"/><path d="M225.496,86.7189l0.264,0.288c0.192,0.192 0.288,0.4 0.288,0.624c0,0.128 -0.032,0.256 -0.096,0.384c-0.112,0.224 -0.552,0.356 -1.32,0.396c-0.768,0.04 -3.368,0.068 -7.8,0.084l-8.352,0.024l-0.264,-0.24c-0.16,-0.144 -0.24,-0.336 -0.24,-0.576c0,-0.224 0.088,-0.424 0.264,-0.6c0.128,-0.112 0.276,-0.184 0.444,-0.216c0.168,-0.032 0.58,-0.056 1.236,-0.072c1.584,-0.048 4.416,-0.072 8.496,-0.072zM144.456,86.7189h17.112l0.24,0.264c0.176,0.144 0.264,0.336 0.264,0.576c0,0.208 -0.088,0.4 -0.264,0.576l-0.264,0.264h-17.04l-0.264,-0.264c-0.176,-0.176 -0.264,-0.376 -0.264,-0.6c0,-0.208 0.08,-0.392 0.24,-0.552zM200.368,70.4229c0.208,0 0.4,0.088 0.576,0.264l0.288,0.288v3.24c0.368,0.016 0.924,0.024 1.668,0.024c0.744,0 1.3,0.008 1.668,0.024l0.24,0.288c0.16,0.208 0.24,0.392 0.24,0.552c0,0.16 -0.08,0.344 -0.24,0.552l-0.24,0.288c-0.368,0.016 -0.924,0.024 -1.668,0.024c-0.744,0 -1.3,0.008 -1.668,0.024v5.904c0,3.136 -0.02,4.988 -0.06,5.556c-0.04,0.568 -0.164,0.892 -0.372,0.972c-0.128,0.048 -0.256,0.072 -0.384,0.072c-0.256,0 -0.472,-0.088 -0.648,-0.264l-0.24,-0.264l0.024,-4.992c0,-0.4 0.004,-0.964 0.012,-1.692c0.008,-0.728 0.012,-1.244 0.012,-1.548c0,-1.408 -0.016,-2.32 -0.048,-2.736l-0.072,-1.008c-0.432,-0.016 -1.072,-0.024 -1.92,-0.024c-0.848,0 -1.48,-0.008 -1.896,-0.024l-0.216,-0.288c-0.16,-0.208 -0.24,-0.4 -0.24,-0.576c0,-0.192 0.096,-0.384 0.288,-0.576l0.264,-0.288h3.864l-0.024,-0.648v-1.656c0,-0.464 0.012,-0.76 0.036,-0.888c0.024,-0.128 0.092,-0.248 0.204,-0.36c0.16,-0.16 0.344,-0.24 0.552,-0.24zM187.792,70.4229c0.16,0 0.344,0.088 0.552,0.264l0.288,0.288v8.424c0,5.568 -0.032,8.448 -0.096,8.64c-0.112,0.304 -0.36,0.456 -0.744,0.456c-0.224,0 -0.416,-0.072 -0.576,-0.216l-0.24,-0.216v-8.568v-2.328c0,-3.152 0.02,-5.016 0.06,-5.592c0.04,-0.576 0.148,-0.912 0.324,-1.008c0.016,-0.016 0.032,-0.024 0.048,-0.024c0.16,-0.08 0.288,-0.12 0.384,-0.12zM182.256,70.4229c0.176,0 0.356,0.1 0.54,0.3c0.184,0.2 0.276,0.388 0.276,0.564c0,0.208 -0.056,0.368 -0.168,0.48c-0.112,0.144 -2.68,1.464 -7.704,3.96l-7.512,3.744l7.464,3.72c5.008,2.512 7.576,3.84 7.704,3.984c0.144,0.176 0.216,0.352 0.216,0.528c0,0.208 -0.08,0.392 -0.24,0.552c-0.16,0.16 -0.36,0.24 -0.6,0.24c-0.224,0 -3.096,-1.384 -8.616,-4.152c-5.504,-2.752 -8.32,-4.208 -8.448,-4.368c-0.112,-0.128 -0.168,-0.28 -0.168,-0.456c0,-0.192 0.072,-0.352 0.216,-0.48c0.256,-0.224 0.84,-0.576 1.752,-1.056c0.912,-0.48 3.272,-1.672 7.08,-3.576c5.248,-2.656 7.984,-3.984 8.208,-3.984zM222.712,70.3269h2.736l0.312,0.24c0.208,0.16 0.312,0.36 0.312,0.6c0,0.208 -0.08,0.392 -0.24,0.552l-0.24,0.24l-4.92,0.048c-2.704,0.048 -5.56,0.072 -8.568,0.072h-3.648l-0.24,-0.24c-0.16,-0.16 -0.24,-0.368 -0.24,-0.624c0,-0.128 0.024,-0.248 0.072,-0.36c0.064,-0.192 0.368,-0.304 0.912,-0.336c0.544,-0.032 2.304,-0.064 5.28,-0.096c3.12,-0.016 5.944,-0.048 8.472,-0.096zM144.744,70.3269c0.4,0 0.648,0.124 0.744,0.372c0.096,0.248 0.144,0.868 0.144,1.86v1.56h15.912l0.264,0.264c0.176,0.128 0.264,0.312 0.264,0.552c0,0.224 -0.088,0.424 -0.264,0.6l-0.264,0.264h-15.912v2.712h15.936l0.24,0.264c0.16,0.16 0.24,0.352 0.24,0.576c0,0.224 -0.088,0.416 -0.264,0.576l-0.288,0.264h-17.04l-0.48,-0.48v-8.904l0.24,-0.24c0.16,-0.16 0.336,-0.24 0.528,-0.24zM122.72,70.3269c0.416,0 0.672,0.12 0.768,0.36c0.096,0.24 0.144,0.864 0.144,1.872v1.56h15.912c0.224,0.288 0.392,0.496 0.504,0.624v13.08l-0.288,0.288c-0.176,0.176 -0.368,0.264 -0.576,0.264c-0.208,0 -0.392,-0.08 -0.552,-0.24l-0.24,-0.264c0,-1.344 -0.008,-3.352 -0.024,-6.024c-0.016,-2.672 -0.024,-4.672 -0.024,-6l-7.344,-0.048h-7.368v12.024l-0.288,0.288c-0.176,0.176 -0.368,0.264 -0.576,0.264c-0.208,0 -0.392,-0.08 -0.552,-0.24l-0.24,-0.216v-8.544c0,-4.256 0.008,-6.756 0.024,-7.5c0.016,-0.744 0.08,-1.18 0.192,-1.308c0.128,-0.16 0.304,-0.24 0.528,-0.24z"/><path d="M127.16,114.767h4.008c4.128,0.016 6.564,0.032 7.308,0.048c0.744,0.016 1.172,0.072 1.284,0.168c0.224,0.192 0.336,0.416 0.336,0.672c0,0.304 -0.168,0.536 -0.504,0.696c-0.288,0.112 -3.152,0.168 -8.592,0.168c-5.456,0 -8.296,-0.056 -8.52,-0.168c-0.304,-0.144 -0.456,-0.392 -0.456,-0.744c0,-0.352 0.16,-0.6 0.48,-0.744c0.176,-0.064 1.728,-0.096 4.656,-0.096zM172.152,108.191c-0.688,0 -1.048,0.04 -1.08,0.12c-0.016,0.048 -0.024,0.4 -0.024,1.056l0.048,0.912l1.056,0.024l1.032,0.048v-2.16zM225.208,98.4229c0.256,0 0.46,0.076 0.612,0.228c0.152,0.152 0.228,0.356 0.228,0.612c0,0.176 -0.392,0.6721 -1.176,1.4881c-0.784,0.816 -3.2,3.248 -7.248,7.296c-4.08,4.096 -6.52,6.528 -7.32,7.296c-0.8,0.768 -1.28,1.152 -1.44,1.152c-0.208,0 -0.416,-0.088 -0.624,-0.264c-0.176,-0.176 -0.264,-0.312 -0.264,-0.408c0,-0.192 0.204,-0.512 0.612,-0.96c0.408,-0.448 1.428,-1.504 3.06,-3.168c0.384,-0.4 0.68,-0.704 0.888,-0.912c2.496,-2.544 5.304,-5.376 8.424,-8.496c1.904,-1.888 3.044,-3.0041 3.42,-3.3481c0.376,-0.344 0.652,-0.516 0.828,-0.516zM208.84,98.3989c0.192,0 0.368,0.064 0.528,0.192c0.112,0.08 0.18,0.192 0.204,0.336c0.024,0.144 0.052,0.456 0.084,0.9361c0,0.048 0.004,0.272 0.012,0.672c0.008,0.4 0.012,0.76 0.012,1.08c0,0.256 -0.004,0.7 -0.012,1.332c-0.008,0.632 -0.012,1.116 -0.012,1.452l-0.048,3.504l-0.24,0.192c-0.16,0.128 -0.336,0.192 -0.528,0.192c-0.224,0 -0.424,-0.088 -0.6,-0.264l-0.264,-0.264v-8.8321l0.264,-0.264c0.144,-0.176 0.344,-0.264 0.6,-0.264zM187.84,98.3989c0.208,0 0.4,0.08 0.576,0.24l0.264,0.24l0.024,1.6801l0.048,1.656h6.408l0.048,-1.656l0.024,-1.6801l0.264,-0.24c0.208,-0.16 0.392,-0.24 0.552,-0.24c0.176,0 0.368,0.08 0.576,0.24l0.264,0.24l0.024,1.6801l0.048,1.656h7.584l0.264,0.24c0.192,0.176 0.288,0.376 0.288,0.6c0,0.224 -0.08,0.416 -0.24,0.576l-0.24,0.264h-7.656l-0.048,1.944l-0.024,1.968l-0.264,0.24c-0.224,0.16 -0.416,0.24 -0.576,0.24c-0.144,0 -0.328,-0.08 -0.552,-0.24l-0.264,-0.24l-0.024,-1.968l-0.048,-1.944h-6.432v2.016c0,0.448 -0.008,0.968 -0.024,1.56v0.912c0,0.016 0,0.08 0,0.192c0,0.112 -0.004,0.26 -0.012,0.444c-0.008,0.184 -0.012,0.364 -0.012,0.54c0,0.192 0.004,0.544 0.012,1.056c0.008,0.512 0.012,0.912 0.012,1.2l0.048,3h15.792l0.264,0.24c0.192,0.176 0.288,0.376 0.288,0.6c0,0.224 -0.08,0.416 -0.24,0.576l-0.24,0.264h-17.04c-0.192,-0.144 -0.376,-0.304 -0.552,-0.48c0,-1.888 -0.008,-4.72 -0.024,-8.496c-0.016,-3.776 -0.024,-6.608 -0.024,-8.4961l0.264,-0.312c0.16,-0.208 0.36,-0.312 0.6,-0.312zM144.84,98.3269c0.144,0 0.3,0.06 0.468,0.18c0.168,0.12 0.276,0.252 0.324,0.396c0.08,0.24 0.12,2.8481 0.12,7.8241v7.512l7.512,-3.768c4.992,-2.496 7.584,-3.776 7.776,-3.84c0.096,-0.032 0.176,-0.048 0.24,-0.048c0.208,0 0.4,0.08 0.576,0.24c0.176,0.16 0.264,0.352 0.264,0.576c0,0.112 -0.024,0.224 -0.072,0.336c-0.064,0.144 -0.504,0.424 -1.32,0.84c-0.816,0.416 -3.248,1.64 -7.296,3.672c-5.632,2.832 -8.488,4.248 -8.568,4.248c-0.128,0 -0.276,-0.064 -0.444,-0.192c-0.168,-0.128 -0.276,-0.264 -0.324,-0.408c-0.08,-0.176 -0.12,-3.008 -0.12,-8.496c0,-5.488 0.04,-8.3201 0.12,-8.4961c0.032,-0.128 0.128,-0.256 0.288,-0.384c0.16,-0.128 0.312,-0.192 0.456,-0.192zM122.792,98.3269c0.192,0 0.368,0.06 0.528,0.18c0.16,0.12 0.264,0.276 0.312,0.468c0.064,0.256 0.096,0.8401 0.096,1.7521v1.392h7.704c5.104,0 7.792,0.04 8.064,0.12c0.4,0.128 0.6,0.384 0.6,0.768c0,0.352 -0.168,0.6 -0.504,0.744c-0.208,0.096 -2.904,0.144 -8.088,0.144h-7.752l-0.048,1.896c-0.016,1.248 -0.088,1.944 -0.216,2.088c-0.224,0.224 -0.44,0.336 -0.648,0.336c-0.064,0 -0.16,-0.016 -0.288,-0.048c-0.288,-0.112 -0.456,-0.372 -0.504,-0.78c-0.048,-0.408 -0.072,-1.772 -0.072,-4.092c0,-2.256 0.02,-3.6 0.06,-4.0321c0.04,-0.432 0.172,-0.712 0.396,-0.84c0.112,-0.064 0.232,-0.096 0.36,-0.096zM169.944,98.2309c2.848,0 4.336,0.032 4.464,0.096c0.256,0.112 0.408,0.36 0.456,0.744c0.048,0.384 0.072,1.5921 0.072,3.6241v3.72c0.848,0 2.12,0.008 3.816,0.024c1.696,0.016 2.968,0.024 3.816,0.024c0.224,0.256 0.4,0.44 0.528,0.552l0.024,4.176c0,0.352 0.004,0.788 0.012,1.308c0.008,0.52 0.012,0.868 0.012,1.044c0,1.12 -0.032,1.824 -0.096,2.112c-0.064,0.288 -0.208,0.488 -0.432,0.6c-0.192,0.096 -0.408,0.104 -0.648,0.024c-0.288,-0.112 -0.456,-0.356 -0.504,-0.732c-0.048,-0.376 -0.072,-1.596 -0.072,-3.66v-3.696h-6.456v1.512c0,0.816 -0.028,1.356 -0.084,1.62c-0.056,0.264 -0.188,0.452 -0.396,0.564c-0.16,0.064 -0.944,0.096 -2.352,0.096h-2.16c-0.128,-0.112 -0.32,-0.296 -0.576,-0.552v-4.44l0.576,-0.576h3.24v-6.432h-3.648c-2.4,0 -3.72,-0.04 -3.96,-0.12c-0.368,-0.144 -0.552,-0.4081 -0.552,-0.7921c0,-0.384 0.184,-0.648 0.552,-0.792c0.096,-0.032 1.552,-0.048 4.368,-0.048z"/><path d="M130.792,143.719h8.832l0.264,0.264c0.176,0.176 0.264,0.368 0.264,0.576c0,0.24 -0.088,0.432 -0.264,0.576l-0.24,0.264h-8.904l-0.24,-0.264c-0.16,-0.144 -0.24,-0.328 -0.24,-0.552c0,-0.224 0.088,-0.424 0.264,-0.6zM130.744,135.511h8.88l0.264,0.264c0.176,0.128 0.264,0.312 0.264,0.552c0,0.224 -0.088,0.424 -0.264,0.6l-0.264,0.264h-8.832l-0.264,-0.264c-0.176,-0.176 -0.264,-0.376 -0.264,-0.6c0,-0.224 0.08,-0.408 0.24,-0.552zM170,127.615c2.768,0 4.224,0.024 4.368,0.072c0.176,0.08 1.66,1.516 4.452,4.308c2.792,2.792 4.22,4.268 4.284,4.428c0.064,0.192 0.056,0.392 -0.024,0.6c-0.096,0.224 -1.56,1.736 -4.392,4.536l-4.224,4.224h-8.856l-0.288,-0.288c-0.176,-0.176 -0.264,-0.36 -0.264,-0.552c0,-0.176 0.08,-0.352 0.24,-0.528l0.264,-0.288h8.136l3.672,-3.672c0.272,-0.272 0.552,-0.552 0.84,-0.84c0.288,-0.288 0.548,-0.548 0.78,-0.78c0.232,-0.232 0.456,-0.46 0.672,-0.684c0.216,-0.224 0.408,-0.42 0.576,-0.588c0.168,-0.168 0.312,-0.312 0.432,-0.432c0.12,-0.12 0.212,-0.212 0.276,-0.276l0.12,-0.12c0.016,-0.016 -1.192,-1.248 -3.624,-3.696l-3.648,-3.672h-4.008c-1.84,0 -2.984,-0.012 -3.432,-0.036c-0.448,-0.024 -0.744,-0.076 -0.888,-0.156c-0.256,-0.16 -0.384,-0.384 -0.384,-0.672c0,-0.352 0.16,-0.6 0.48,-0.744c0.24,-0.096 1.72,-0.144 4.44,-0.144zM196.2,127.543l8.424,0.024l0.264,0.24c0.16,0.16 0.232,0.36 0.216,0.6c-0.016,0.176 -0.328,0.592 -0.936,1.248c-0.608,0.656 -2.24,2.312 -4.896,4.968c-4.576,4.608 -7.576,7.604 -9,8.988c-1.424,1.384 -2.216,2.076 -2.376,2.076c-0.192,0 -0.38,-0.1 -0.564,-0.3c-0.184,-0.2 -0.276,-0.404 -0.276,-0.612c0,-0.144 0.364,-0.592 1.092,-1.344c0.728,-0.752 2.892,-2.936 6.492,-6.552l7.584,-7.608c-1.632,0 -4.08,-0.008 -7.344,-0.024c-3.264,-0.016 -5.712,-0.024 -7.344,-0.024l-0.24,-0.264c-0.144,-0.176 -0.216,-0.368 -0.216,-0.576c0,-0.368 0.168,-0.624 0.504,-0.768c0.096,-0.048 2.968,-0.072 8.616,-0.072zM122.56,127.327h8.904l0.216,0.24c0.16,0.16 0.24,0.344 0.24,0.552c0,0.208 -0.088,0.4 -0.264,0.576l-0.288,0.288h-7.632v7.872c0,4.048 -0.016,6.424 -0.048,7.128c-0.032,0.704 -0.144,1.128 -0.336,1.272c-0.08,0.08 -0.216,0.12 -0.408,0.12c-0.256,0 -0.464,-0.08 -0.624,-0.24l-0.264,-0.216v-7.56v-3.864c0,-3.872 0.064,-5.84 0.192,-5.904c0.032,-0.016 0.056,-0.032 0.072,-0.048zM144.92,127.303c0.24,0 0.44,0.104 0.6,0.312c0.112,0.128 0.18,0.256 0.204,0.384c0.024,0.128 0.036,0.432 0.036,0.912v0.624v1.584h15.84l0.288,0.288c0.192,0.192 0.288,0.376 0.288,0.552c0,0.176 -0.08,0.352 -0.24,0.528l-0.264,0.312h-15.912v2.712h15.84l0.576,0.576v8.688c-0.224,0.288 -0.392,0.496 -0.504,0.624h-17.088l-0.24,-0.264c-0.16,-0.144 -0.24,-0.336 -0.24,-0.576c0,-0.24 0.08,-0.432 0.24,-0.576l0.24,-0.264h15.936c0,-0.72 -0.008,-1.8 -0.024,-3.24c-0.016,-1.44 -0.024,-2.52 -0.024,-3.24c-1.776,0 -4.44,-0.016 -7.992,-0.048c-3.552,-0.032 -6.216,-0.048 -7.992,-0.048l-0.168,-0.216c-0.128,-0.144 -0.208,-1.4 -0.24,-3.768c-0.016,-1.296 -0.024,-2.784 -0.024,-4.464c0.016,-0.432 0.036,-0.704 0.06,-0.816c0.024,-0.112 0.1,-0.224 0.228,-0.336c0.16,-0.16 0.352,-0.24 0.576,-0.24z"/><path d="M208.657,127.543c0.24,0 0.464,0.104 0.672,0.312l0.216,0.264v7.728l1.896,-0.072c0.096,0 0.5,-0.004 1.212,-0.012c0.712,-0.008 1.348,-0.012 1.908,-0.012c0.464,0 1.244,0.004 2.34,0.012c1.096,0.008 1.932,0.012 2.508,0.012l6.096,0.072l0.24,0.216c0.144,0.144 0.216,0.312 0.216,0.504c0,0.208 -0.08,0.4 -0.24,0.576l-0.24,0.288c-1.76,0 -4.416,0.008 -7.968,0.024c-3.552,0.016 -6.208,0.024 -7.968,0.024v7.632l-0.288,0.288c-0.176,0.176 -0.352,0.264 -0.528,0.264c-0.192,0 -0.376,-0.088 -0.552,-0.264l-0.288,-0.264v-8.52c0,-4.096 0.008,-6.556 0.024,-7.38c0.016,-0.824 0.064,-1.276 0.144,-1.356c0.144,-0.144 0.264,-0.24 0.36,-0.288c0.096,-0.032 0.176,-0.048 0.24,-0.048z"/><path d="M157.32,173.151l4.248,0.024l0.264,0.264c0.176,0.176 0.264,0.376 0.264,0.6c0,0.24 -0.096,0.44 -0.288,0.6l-0.264,0.24h-4.296c-2.816,0 -4.32,-0.032 -4.512,-0.096c-0.128,-0.048 -0.252,-0.164 -0.372,-0.348c-0.12,-0.184 -0.18,-0.34 -0.18,-0.468c0,-0.112 0.088,-0.268 0.264,-0.468c0.176,-0.2 0.328,-0.308 0.456,-0.324c0.08,-0.016 1.552,-0.024 4.416,-0.024zM131.936,170.487v2.616l2.76,0.072c1.184,0.032 1.976,0.048 2.376,0.048c0.176,0 0.36,-0.004 0.552,-0.012c0.192,-0.008 0.296,-0.012 0.312,-0.012l0.48,-0.024l0.024,-1.368l0.048,-1.32zM139.256,164.991c0.192,0 0.364,0.056 0.516,0.168c0.152,0.112 0.252,0.264 0.3,0.456c0.032,0.16 0.048,1.664 0.048,4.512l-0.048,4.272c-0.064,0.048 -0.152,0.124 -0.264,0.228c-0.112,0.104 -0.2,0.188 -0.264,0.252h-4.296c-2.352,0 -3.74,-0.024 -4.164,-0.072c-0.424,-0.048 -0.692,-0.216 -0.804,-0.504c-0.064,-0.128 -0.096,-0.664 -0.096,-1.608v-1.032l0.024,-2.352l0.264,-0.24l0.24,-0.264l3.864,-0.024h3.84l0.024,-1.68c0.016,-0.752 0.036,-1.224 0.06,-1.416c0.024,-0.192 0.084,-0.344 0.18,-0.456c0.144,-0.16 0.336,-0.24 0.576,-0.24zM122.816,156.807c0.4,0 0.652,0.136 0.756,0.408c0.104,0.272 0.156,0.904 0.156,1.896v1.488h7.656l0.288,0.312c0.16,0.192 0.24,0.368 0.24,0.528c0,0.224 -0.112,0.432 -0.336,0.624l-0.24,0.216h-7.608v5.856c0,3.856 -0.048,5.92 -0.144,6.192c-0.144,0.352 -0.392,0.528 -0.744,0.528c-0.384,0 -0.64,-0.208 -0.768,-0.624c-0.064,-0.288 -0.096,-2.248 -0.096,-5.88v-2.784l0.048,-8.256l0.216,-0.24c0.176,-0.176 0.368,-0.264 0.576,-0.264zM144.864,156.759c0.176,0 0.368,0.104 0.576,0.312l0.24,0.216l0.024,8.28v3.768c0,3.072 -0.024,4.704 -0.072,4.896c-0.128,0.416 -0.384,0.624 -0.768,0.624c-0.288,0 -0.52,-0.136 -0.696,-0.408c-0.096,-0.16 -0.152,-0.616 -0.168,-1.368c-0.016,-0.752 -0.024,-3.168 -0.024,-7.248c0,-5.552 0.04,-8.416 0.12,-8.592c0.096,-0.176 0.232,-0.304 0.408,-0.384c0.16,-0.064 0.28,-0.096 0.36,-0.096zM157.152,156.711c2.72,0 4.2,0.048 4.44,0.144c0.336,0.144 0.504,0.392 0.504,0.744c0,0.336 -0.168,0.576 -0.504,0.72c-0.24,0.096 -1.712,0.144 -4.416,0.144c-2.72,0 -4.2,-0.048 -4.44,-0.144c-0.352,-0.144 -0.528,-0.392 -0.528,-0.744c0,-0.336 0.168,-0.576 0.504,-0.72c0.24,-0.096 1.72,-0.144 4.44,-0.144zM135.08,156.711c2.64,0 4.104,0.032 4.392,0.096c0.24,0.064 0.416,0.216 0.528,0.456c0.08,0.16 0.12,0.268 0.12,0.324c0,0.056 -0.04,0.164 -0.12,0.324c-0.112,0.24 -0.32,0.388 -0.624,0.444c-0.304,0.056 -1.104,0.084 -2.4,0.084h-2.04l-4.176,-0.024l-0.264,-0.264c-0.16,-0.16 -0.24,-0.352 -0.24,-0.576c0,-0.368 0.184,-0.624 0.552,-0.768c0.192,-0.064 1.616,-0.096 4.272,-0.096z"/><path d="M198.064,170.391l1.128,1.104c0.752,0.752 1.144,1.128 1.176,1.128c1.264,-1.28 1.896,-1.992 1.896,-2.136c0,-0.064 -0.688,-0.096 -2.064,-0.096zM216.136,159.639c-0.048,0 -1.08,1.008 -3.096,3.024l-3.048,3.024l6.216,6.216v-6.144c0,-4.08 -0.024,-6.12 -0.072,-6.12zM188.632,158.463v2.592c0,1.728 0.024,2.592 0.072,2.592c0.048,0 0.936,-0.864 2.664,-2.592l2.592,-2.592zM192.064,156.759c2.064,0 3.3,0.008 3.708,0.024c0.408,0.016 0.676,0.072 0.804,0.168c0.176,0.112 0.264,0.296 0.264,0.552c0,0.224 -0.064,0.408 -0.192,0.552c-0.24,0.288 -1.384,1.456 -3.432,3.504c-2.16,2.16 -3.224,3.256 -3.192,3.288c0.064,0.064 1.792,0.096 5.184,0.096c1.328,0 2.28,-0.008 2.856,-0.024l2.712,-0.024l2.136,2.136c1.008,1.008 1.616,1.632 1.824,1.872c0.208,0.24 0.312,0.448 0.312,0.624c0,0.208 -0.08,0.416 -0.24,0.624c-0.16,0.208 -0.856,1.008 -2.088,2.4c-1.2,1.376 -1.88,2.096 -2.04,2.16c-0.144,0.064 -0.288,0.08 -0.432,0.048c-0.208,-0.08 -1.088,-0.912 -2.64,-2.496c-1.024,-1.024 -1.684,-1.7 -1.98,-2.028c-0.296,-0.328 -0.444,-0.58 -0.444,-0.756c0,-0.112 0.08,-0.264 0.24,-0.456l0.264,-0.312h3.144c2.144,0 3.216,-0.024 3.216,-0.072c0,-0.08 -0.32,-0.44 -0.96,-1.08l-0.984,-1.008c-1.28,0.016 -3.192,0.04 -5.736,0.072c-2.544,0.032 -4.456,0.056 -5.736,0.072v7.68l-0.288,0.24c-0.176,0.16 -0.352,0.24 -0.528,0.24c-0.192,0 -0.376,-0.088 -0.552,-0.264l-0.288,-0.288v-8.496c0,-4.208 0.008,-6.688 0.024,-7.44c0.016,-0.752 0.072,-1.184 0.168,-1.296c0.096,-0.16 0.24,-0.256 0.432,-0.288c0.08,-0.016 1.568,-0.024 4.464,-0.024zM171.072,156.735h3.096l8.376,0.024l0.24,0.24c0.176,0.176 0.264,0.384 0.264,0.624c0,0.192 -0.248,0.556 -0.744,1.092c-0.496,0.536 -2.216,2.276 -5.16,5.22c-3.952,3.952 -5.928,5.952 -5.928,6c0,0.064 0.608,0.704 1.824,1.92c0.784,0.784 1.28,1.3 1.488,1.548c0.208,0.248 0.312,0.436 0.312,0.564c0,0.368 -0.136,0.624 -0.408,0.768c-0.16,0.08 -0.288,0.12 -0.384,0.12c-0.16,0 -0.364,-0.108 -0.612,-0.324c-0.248,-0.216 -0.78,-0.724 -1.596,-1.524l-1.872,-1.872l-1.848,1.8c-1.248,1.232 -1.952,1.864 -2.112,1.896c-0.048,0.016 -0.112,0.024 -0.192,0.024c-0.208,0 -0.396,-0.084 -0.564,-0.252c-0.168,-0.168 -0.252,-0.356 -0.252,-0.564c0,-0.08 0.008,-0.144 0.024,-0.192c0.048,-0.176 0.68,-0.888 1.896,-2.136l1.8,-1.824l-1.872,-1.872c-1.248,-1.248 -1.872,-1.952 -1.872,-2.112c0,-0.24 0.092,-0.456 0.276,-0.648c0.184,-0.192 0.388,-0.288 0.612,-0.288c0.064,0 0.144,0.016 0.24,0.048c0.128,0.048 0.784,0.664 1.968,1.848c1.136,1.168 1.744,1.752 1.824,1.752c0.08,0 1.808,-1.688 5.184,-5.064l5.088,-5.088l-7.344,-0.024c-3.552,-0.016 -5.672,-0.032 -6.36,-0.048c-0.688,-0.016 -1.08,-0.064 -1.176,-0.144c-0.192,-0.176 -0.288,-0.384 -0.288,-0.624c0,-0.352 0.168,-0.608 0.504,-0.768c0.208,-0.08 2.064,-0.12 5.568,-0.12zM216.832,156.687c0.144,-0.032 0.28,-0.032 0.408,0c0.128,0.032 1.632,1.488 4.512,4.368l4.32,4.296v8.928l-0.312,0.24c-0.176,0.16 -0.352,0.24 -0.528,0.24c-0.176,0 -0.344,-0.072 -0.504,-0.216l-0.264,-0.24l-0.024,-4.128l-0.048,-4.152l-6.528,-6.528v14.784l-0.312,0.24c-0.192,0.16 -0.328,0.24 -0.408,0.24c-0.208,0 -0.584,-0.252 -1.128,-0.756c-0.544,-0.504 -1.76,-1.7 -3.648,-3.588c-2,-2 -3.228,-3.248 -3.684,-3.744c-0.456,-0.496 -0.684,-0.824 -0.684,-0.984c0,-0.16 0.216,-0.472 0.648,-0.936c0.432,-0.464 1.656,-1.704 3.672,-3.72c2.896,-2.896 4.4,-4.344 4.512,-4.344z"/><path d="M131.92,199.391v2.616l1.32,0.024c0.144,0 0.324,0.004 0.54,0.012c0.216,0.008 0.356,0.012 0.42,0.012l0.408,-0.024c0.032,-0.032 0.048,-0.48 0.048,-1.344v-1.296zM135.448,185.663c0.224,0 0.432,0.08 0.624,0.24c0.128,0.128 0.208,0.76 0.24,1.896l0.048,1.68l1.704,0.048c0.832,0.032 1.328,0.056 1.488,0.072c0.16,0.016 0.288,0.08 0.384,0.192c0.128,0.176 0.192,0.344 0.192,0.504c0,0.24 -0.104,0.448 -0.312,0.624c-0.144,0.128 -0.296,0.204 -0.456,0.228c-0.16,0.024 -0.64,0.036 -1.44,0.036h-1.608v6.528h1.656c0.8,0 1.288,0.012 1.464,0.036c0.176,0.024 0.328,0.1 0.456,0.228c0.16,0.16 0.24,0.368 0.24,0.624c0,0.192 -0.04,0.328 -0.12,0.408c-0.128,0.176 -0.316,0.284 -0.564,0.324c-0.248,0.04 -0.764,0.06 -1.548,0.06h-1.584v3.816c-0.256,0.256 -0.44,0.448 -0.552,0.576h-4.944c-0.112,-0.128 -0.296,-0.32 -0.552,-0.576v-2.496c0,-1.136 0.012,-1.844 0.036,-2.124c0.024,-0.28 0.076,-0.476 0.156,-0.588c0.096,-0.112 0.244,-0.184 0.444,-0.216c0.2,-0.032 0.772,-0.056 1.716,-0.072l1.992,-0.048c0.016,-0.72 0.024,-1.8 0.024,-3.24c0,-1.44 0.008,-2.52 0.024,-3.24h-3.792l-0.312,-0.264c-0.192,-0.16 -0.288,-0.36 -0.288,-0.6c0,-0.176 0.064,-0.352 0.192,-0.528c0.096,-0.112 0.236,-0.176 0.42,-0.192c0.184,-0.016 0.764,-0.04 1.74,-0.072l1.992,-0.048l0.024,-1.656c0.016,-0.88 0.052,-1.428 0.108,-1.644c0.056,-0.216 0.204,-0.372 0.444,-0.468c0.096,-0.032 0.184,-0.048 0.264,-0.048zM122.872,185.663c0.272,0 0.488,0.104 0.648,0.312c0.096,0.112 0.152,0.548 0.168,1.308c0.016,0.76 0.024,3.236 0.024,7.428v8.496l-0.288,0.288c-0.192,0.192 -0.368,0.288 -0.528,0.288c-0.176,0 -0.36,-0.096 -0.552,-0.288l-0.288,-0.288v-8.496c0,-4.208 0.008,-6.688 0.024,-7.44c0.016,-0.752 0.072,-1.184 0.168,-1.296c0.144,-0.208 0.352,-0.312 0.624,-0.312zM144.872,185.399c0.176,0 0.368,0.08 0.576,0.24l0.264,0.24l0.024,3.864l0.048,3.888h15.72l0.288,0.264c0.176,0.176 0.264,0.36 0.264,0.552c0,0.176 -0.08,0.352 -0.24,0.528l-0.24,0.312h-15.816v6.528h15.72l0.24,0.216c0.176,0.144 0.28,0.328 0.312,0.552c0.032,0.192 -0.048,0.392 -0.24,0.6l-0.288,0.312h-16.896c-0.192,-0.144 -0.376,-0.304 -0.552,-0.48v-17.136l0.264,-0.24c0.208,-0.16 0.392,-0.24 0.552,-0.24zM186.944,185.327c0.176,0 0.672,0.392 1.488,1.176c0.816,0.784 3.248,3.2 7.296,7.248c4.048,4.048 6.464,6.48 7.248,7.296c0.784,0.816 1.176,1.312 1.176,1.488c0,0.256 -0.076,0.464 -0.228,0.624c-0.152,0.16 -0.356,0.24 -0.612,0.24c-0.176,0 -0.588,-0.312 -1.236,-0.936c-0.648,-0.624 -2.892,-2.848 -6.732,-6.672l-7.608,-7.584c0,1.632 0.012,4.072 0.036,7.32c0.024,3.248 0.044,5.68 0.06,7.296l-0.264,0.288c-0.176,0.176 -0.376,0.264 -0.6,0.264c-0.208,0 -0.376,-0.056 -0.504,-0.168l-0.216,-0.192l-0.096,-3.216c-0.064,-2.336 -0.096,-3.696 -0.096,-4.08c0,-1.936 0.008,-3.736 0.024,-5.4v-4.512l0.264,-0.24c0.16,-0.16 0.36,-0.24 0.6,-0.24zM175.664,185.327h3.984c1.424,0 2.292,0.012 2.604,0.036c0.312,0.024 0.516,0.076 0.612,0.156c0.176,0.16 0.264,0.36 0.264,0.6c0,0.192 -0.32,0.624 -0.96,1.296c-0.64,0.672 -3.048,3.112 -7.224,7.32c-1.28,1.296 -2.628,2.656 -4.044,4.08c-1.416,1.424 -2.492,2.504 -3.228,3.24c-0.736,0.736 -1.128,1.128 -1.176,1.176c-0.208,0.176 -0.416,0.264 -0.624,0.264c-0.224,0 -0.416,-0.084 -0.576,-0.252c-0.16,-0.168 -0.24,-0.38 -0.24,-0.636c0,-0.272 3.544,-3.928 10.632,-10.968c3.008,-3.008 4.512,-4.536 4.512,-4.584c0,-0.032 -1.336,-0.048 -4.008,-0.048h-3.288l-7.32,0.048l-0.264,-0.288c-0.176,-0.176 -0.264,-0.344 -0.264,-0.504c0,-0.16 0.088,-0.344 0.264,-0.552l0.24,-0.288l1.584,-0.048c0.048,0 1.1,-0.008 3.156,-0.024c2.056,-0.016 3.844,-0.024 5.364,-0.024z"/><path d="M221.281,197.543c0.144,0 0.296,0.056 0.456,0.168c0.176,0.112 0.904,0.896 2.184,2.352c1.28,1.456 1.952,2.264 2.016,2.424c0.032,0.096 0.048,0.184 0.048,0.264c0,0.224 -0.084,0.42 -0.252,0.588c-0.168,0.168 -0.364,0.252 -0.588,0.252c-0.176,0 -0.416,-0.144 -0.72,-0.432c-0.304,-0.288 -1.008,-1.072 -2.112,-2.352c-0.752,-0.848 -1.252,-1.436 -1.5,-1.764c-0.248,-0.328 -0.372,-0.58 -0.372,-0.756c0,-0.128 0.096,-0.288 0.288,-0.48c0.208,-0.176 0.392,-0.264 0.552,-0.264zM213.025,197.519c0.176,0 0.352,0.056 0.528,0.168c0.176,0.112 0.28,0.232 0.312,0.36c0.032,0.128 0.048,0.216 0.048,0.264c0,0.192 -0.144,0.456 -0.432,0.792c-0.288,0.336 -0.952,1.032 -1.992,2.088c-0.992,0.992 -1.656,1.64 -1.992,1.944c-0.336,0.304 -0.592,0.456 -0.768,0.456c-0.128,0 -0.296,-0.104 -0.504,-0.312c-0.192,-0.208 -0.272,-0.408 -0.24,-0.6c0.064,-0.336 1.168,-1.56 3.312,-3.672c1.008,-0.992 1.584,-1.488 1.728,-1.488zM216.937,185.519c0.144,0 0.328,0.08 0.552,0.24l0.288,0.216c0,0.368 0.008,0.924 0.024,1.668c0.016,0.744 0.024,1.3 0.024,1.668h7.608l0.264,0.24c0.192,0.144 0.288,0.344 0.288,0.6c0,0.256 -0.096,0.456 -0.288,0.6l-0.264,0.24h-7.608c0,1.344 -0.008,3.364 -0.024,6.06c-0.016,2.696 -0.024,4.716 -0.024,6.06l-0.288,0.24c-0.208,0.16 -0.392,0.24 -0.552,0.24c-0.16,0 -0.344,-0.08 -0.552,-0.24l-0.264,-0.24l-0.048,-6.072v-6.048h-7.704l-0.264,-0.312c-0.144,-0.16 -0.216,-0.336 -0.216,-0.528c0,-0.224 0.104,-0.432 0.312,-0.624l0.264,-0.216h7.584l0.024,-1.656l0.048,-1.68l0.264,-0.216c0.224,-0.16 0.408,-0.24 0.552,-0.24z"/><path d="M151.8,224.287c-0.256,0 -0.392,0.024 -0.408,0.072c0,0.032 0.016,0.064 0.048,0.096c0.128,0.256 0.352,0.472 0.672,0.648c0.048,0.032 0.08,0.008 0.096,-0.072c0.016,-0.064 0.024,-0.168 0.024,-0.312v-0.432zM208.84,214.447c0.128,0 0.264,0.04 0.408,0.12c0.208,0.112 0.34,0.3 0.396,0.564c0.056,0.264 0.084,0.804 0.084,1.62v1.44l7.92,0.072c5.312,0.048 8.008,0.096 8.088,0.144c0.256,0.144 0.384,0.376 0.384,0.696c0,0.112 -0.024,0.216 -0.072,0.312l-0.024,0.048c-0.064,0.192 -0.2,0.312 -0.408,0.36c-0.432,0.112 -2.552,0.168 -6.36,0.168h-1.752h-7.776v2.64h7.776h1.752c3.248,0 5.164,0.024 5.748,0.072c0.584,0.048 0.924,0.2 1.02,0.456c0.016,0.016 0.024,0.032 0.024,0.048c0.08,0.192 0.08,0.384 0,0.576c0,0.016 -0.008,0.04 -0.024,0.072c-0.08,0.192 -0.232,0.312 -0.456,0.36c-0.448,0.112 -2.992,0.168 -7.632,0.168h-0.024h-0.024h-0.024h-0.024h-0.024h-0.024h-0.024h-0.216h-7.824v6.432h14.76v-1.92c0,-0.928 0.008,-1.488 0.024,-1.68c0.016,-0.192 0.08,-0.344 0.192,-0.456c0.16,-0.16 0.36,-0.24 0.6,-0.24c0.192,0 0.344,0.048 0.456,0.144c0.176,0.128 0.284,0.336 0.324,0.624c0.04,0.288 0.06,1.024 0.06,2.208c0,1.264 -0.024,2.048 -0.072,2.352c-0.048,0.304 -0.2,0.512 -0.456,0.624c-0.16,0.08 -3.016,0.12 -8.568,0.12c-5.536,0 -8.384,-0.04 -8.544,-0.12c-0.016,0 -0.032,-0.008 -0.048,-0.024c-0.192,-0.08 -0.312,-0.248 -0.36,-0.504c-0.08,-0.448 -0.12,-2.584 -0.12,-6.408v-1.968c0,-5.504 0.032,-8.352 0.096,-8.544c0.064,-0.208 0.192,-0.36 0.384,-0.456c0.128,-0.08 0.256,-0.12 0.384,-0.12zM187.84,214.423c0.16,0 0.464,0.2 0.912,0.6c0.448,0.4 1.576,1.496 3.384,3.288l3.936,3.912l1.992,-2.016c0.88,-0.88 1.452,-1.432 1.716,-1.656c0.264,-0.224 0.468,-0.336 0.612,-0.336c0.208,0 0.408,0.092 0.6,0.276c0.192,0.184 0.288,0.388 0.288,0.612c0,0.128 -0.108,0.316 -0.324,0.564c-0.216,0.248 -0.748,0.78 -1.596,1.596c-1.328,1.296 -1.992,1.992 -1.992,2.088c0,0.144 1.272,1.488 3.816,4.032c1.84,1.824 2.952,2.94 3.336,3.348c0.384,0.408 0.576,0.7 0.576,0.876c0,0.24 -0.084,0.448 -0.252,0.624c-0.168,0.176 -0.372,0.264 -0.612,0.264c-0.16,0 -0.464,-0.204 -0.912,-0.612c-0.448,-0.408 -1.576,-1.516 -3.384,-3.324l-3.936,-3.936l-1.68,1.728c-0.848,0.848 -1.356,1.348 -1.524,1.5c-0.168,0.152 -0.34,0.228 -0.516,0.228c-0.256,0 -0.448,-0.032 -0.576,-0.096c-0.224,-0.144 -0.336,-0.392 -0.336,-0.744c0,-0.064 0.016,-0.144 0.048,-0.24c0.064,-0.16 0.648,-0.792 1.752,-1.896l1.68,-1.656l-3.912,-3.912c-1.904,-1.904 -3.032,-3.048 -3.384,-3.432c-0.352,-0.384 -0.528,-0.664 -0.528,-0.84c0,-0.24 0.08,-0.44 0.24,-0.6c0.16,-0.16 0.352,-0.24 0.576,-0.24zM174,214.423c0.192,0 0.368,0.06 0.528,0.18c0.16,0.12 0.264,0.276 0.312,0.468c0,0.016 0.004,0.036 0.012,0.06c0.008,0.024 0.012,0.044 0.012,0.06c0,0.16 -0.208,0.668 -0.624,1.524c-0.416,0.856 -1.496,3.036 -3.24,6.54c-2.096,4.224 -3.136,6.344 -3.12,6.36c0.032,0.032 1.212,-0.536 3.54,-1.704c2.328,-1.168 4.688,-2.34 7.08,-3.516c2.392,-1.176 3.66,-1.764 3.804,-1.764c0.192,0 0.368,0.08 0.528,0.24l0.264,0.264v8.88l-0.24,0.216c-0.144,0.176 -0.336,0.264 -0.576,0.264c-0.224,0 -0.424,-0.088 -0.6,-0.264l-0.24,-0.264v-3.552c0,-2.368 -0.016,-3.552 -0.048,-3.552l-7.68,3.816c-5.104,2.544 -7.736,3.816 -7.896,3.816c-0.208,0 -0.392,-0.08 -0.552,-0.24c-0.16,-0.16 -0.24,-0.344 -0.24,-0.552c0,-0.176 1.38,-3.04 4.14,-8.592c2.76,-5.552 4.22,-8.392 4.38,-8.52c0.128,-0.112 0.28,-0.168 0.456,-0.168zM144.504,214.423h8.904l0.48,0.48v7.728h7.728l0.24,0.24l0.24,0.216v8.928l-0.24,0.216c-0.176,0.176 -0.368,0.264 -0.576,0.264c-0.224,0 -0.424,-0.104 -0.6,-0.312l-0.24,-0.312v-7.584h-6.552v1.656c0,0.816 -0.012,1.308 -0.036,1.476c-0.024,0.168 -0.092,0.308 -0.204,0.42c-0.16,0.16 -0.36,0.24 -0.6,0.24c-0.176,0 -0.384,-0.1 -0.624,-0.3c-0.24,-0.2 -0.832,-0.772 -1.776,-1.716c-1.36,-1.328 -2.088,-2.088 -2.184,-2.28c-0.064,-0.112 -0.096,-0.232 -0.096,-0.36c0,-0.208 0.088,-0.4 0.264,-0.576c0.128,-0.112 0.752,-0.184 1.872,-0.216l1.68,-0.048c0,-0.72 0.008,-1.804 0.024,-3.252c0.016,-1.448 0.024,-2.532 0.024,-3.252h-7.68l-0.264,-0.264c-0.176,-0.176 -0.264,-0.376 -0.264,-0.6c0,-0.224 0.08,-0.408 0.24,-0.552zM122.504,214.423h17.064l0.24,0.24c0.16,0.16 0.24,0.36 0.24,0.6c0,0.176 -0.276,0.56 -0.828,1.152c-0.552,0.592 -2.26,2.32 -5.124,5.184l-5.976,5.952l1.872,1.872c0.864,0.864 1.388,1.404 1.572,1.62c0.184,0.216 0.276,0.412 0.276,0.588c0,0.256 -0.076,0.464 -0.228,0.624c-0.152,0.16 -0.356,0.24 -0.612,0.24c-0.176,0 -0.476,-0.196 -0.9,-0.588c-0.424,-0.392 -1.692,-1.644 -3.804,-3.756c-2,-2 -3.22,-3.236 -3.66,-3.708c-0.44,-0.472 -0.66,-0.788 -0.66,-0.948c0,-0.224 0.088,-0.424 0.264,-0.6c0.176,-0.176 0.376,-0.264 0.6,-0.264c0.16,0 0.356,0.096 0.588,0.288c0.232,0.192 0.78,0.72 1.644,1.584l1.872,1.848c4.544,-4.544 7.944,-7.952 10.2,-10.224c-1.632,0 -4.08,-0.016 -7.344,-0.048c-3.264,-0.032 -5.712,-0.048 -7.344,-0.048l-0.24,-0.288c-0.144,-0.16 -0.216,-0.336 -0.216,-0.528c0,-0.208 0.08,-0.392 0.24,-0.552z"/><path d="M175.412,245.351c-0.048,0 -0.072,2.016 -0.072,6.048c0,4.032 0.024,6.048 0.072,6.048c0.048,0 1.08,-1.008 3.096,-3.024l3.024,-3.024l-3.024,-3.024c-1.984,-2.016 -3.016,-3.024 -3.096,-3.024zM152.548,242.423h2.976c2.864,0 4.564,0.028 5.1,0.084c0.536,0.056 0.836,0.212 0.9,0.468c0.016,0.048 0.024,0.08 0.024,0.096c0.08,0.272 0.12,1.736 0.12,4.392c0,2.672 -0.04,4.112 -0.12,4.32c-0.096,0.272 -0.288,0.44 -0.576,0.504c-0.288,0.064 -1.024,0.096 -2.208,0.096h-2.112l-0.288,-0.288c-0.192,-0.192 -0.288,-0.384 -0.288,-0.576c0,-0.176 0.08,-0.368 0.24,-0.576l0.24,-0.264l1.68,-0.048l1.656,-0.024c0,-0.72 -0.008,-1.8 -0.024,-3.24c-0.016,-1.44 -0.024,-2.52 -0.024,-3.24h-4.872c-3.328,0 -5.04,0.008 -5.136,0.024l-0.264,0.024v15.864l-0.312,0.288c-0.192,0.144 -0.376,0.216 -0.552,0.216c-0.256,0 -0.464,-0.104 -0.624,-0.312l-0.192,-0.24v-7.896c0,-5.248 -0.056,-7.896 -0.168,-7.944c-0.096,-0.064 -0.304,-0.064 -0.624,0c-0.032,0 -0.108,0.004 -0.228,0.012c-0.12,0.008 -0.228,0.012 -0.324,0.012c-0.256,0 -0.672,-0.016 -1.248,-0.048c-0.88,-0.032 -1.392,-0.12 -1.536,-0.264c-0.16,-0.16 -0.24,-0.352 -0.24,-0.576c0,-0.336 0.152,-0.584 0.456,-0.744c0.16,-0.08 3.016,-0.12 8.568,-0.12zM166.316,242.327c0.176,0 0.352,0.088 0.528,0.264l0.288,0.288v3.192c0,2.128 0.024,3.192 0.072,3.192c0.048,0 1.228,-1.156 3.54,-3.468c2.312,-2.312 3.548,-3.468 3.708,-3.468c0.16,0 0.32,0.04 0.48,0.12c0.128,0.064 1.608,1.512 4.44,4.344c2.016,2.032 3.216,3.26 3.6,3.684c0.384,0.424 0.576,0.724 0.576,0.9c0,0.176 -0.196,0.48 -0.588,0.912c-0.392,0.432 -1.628,1.68 -3.708,3.744c-2.848,2.848 -4.32,4.304 -4.416,4.368c-0.08,0.064 -0.176,0.096 -0.288,0.096c-0.176,0 -0.368,-0.088 -0.576,-0.264l-0.288,-0.264v-14.76l-3.528,3.504c-1.664,1.664 -2.68,2.664 -3.048,3c-0.368,0.336 -0.64,0.504 -0.816,0.504c-0.24,0 -0.432,-0.088 -0.576,-0.264l-0.24,-0.264v-8.808l0.288,-0.288c0.176,-0.176 0.36,-0.264 0.552,-0.264z"/><path d="M189.38,252.287l2.592,2.592c1.712,1.712 2.6,2.568 2.664,2.568c0.048,0 0.072,-0.856 0.072,-2.568v-2.592zM195.524,242.327c0.192,0 0.376,0.088 0.552,0.264l0.288,0.288v3.24l0.72,0.024c0.096,0 0.416,0.004 0.96,0.012c0.544,0.008 0.976,0.012 1.296,0.012c0.288,0 0.812,0.004 1.572,0.012c0.76,0.008 1.292,0.012 1.596,0.012c0.752,0.016 1.216,0.036 1.392,0.06c0.176,0.024 0.32,0.1 0.432,0.228c0.16,0.16 0.24,0.336 0.24,0.528c0,0.16 -0.08,0.344 -0.24,0.552l-0.24,0.288c-0.864,0.016 -2.156,0.024 -3.876,0.024c-1.72,0 -3.004,0.008 -3.852,0.024v2.616l3.864,0.024l3.864,0.048c0.064,0.048 0.148,0.132 0.252,0.252c0.104,0.12 0.18,0.212 0.228,0.276v8.784l-0.24,0.264c-0.144,0.192 -0.344,0.288 -0.6,0.288c-0.256,0 -0.456,-0.096 -0.6,-0.288l-0.216,-0.264v-7.608h-6.552v7.608l-0.24,0.264c-0.144,0.176 -0.336,0.264 -0.576,0.264c-0.176,0 -0.488,-0.208 -0.936,-0.624c-0.448,-0.416 -1.704,-1.656 -3.768,-3.72c-2.096,-2.096 -3.344,-3.36 -3.744,-3.792c-0.4,-0.432 -0.6,-0.728 -0.6,-0.888c0,-0.24 0.088,-0.44 0.264,-0.6l0.24,-0.216l3.864,-0.048l3.84,-0.024v-7.68l0.288,-0.264c0.176,-0.16 0.352,-0.24 0.528,-0.24z"/><path d="M188.632,273.271v5.328l2.64,-2.64l2.64,-2.664c0,-0.016 -0.88,-0.024 -2.64,-0.024zM161.304,271.711c0.384,0 0.624,0.224 0.72,0.672c0.048,0.192 0.072,3.064 0.072,8.616v8.28c-0.224,0.224 -0.384,0.392 -0.48,0.504h-8.952l-0.24,-0.24c-0.16,-0.16 -0.24,-0.336 -0.24,-0.528c0,-0.224 0.096,-0.432 0.288,-0.624l0.264,-0.264h7.656v-15.84l0.288,-0.288c0.192,-0.192 0.4,-0.288 0.624,-0.288zM144.84,271.711c0.208,0 0.392,0.08 0.552,0.24l0.24,0.24v4.44v1.968c0,1.168 -0.012,1.884 -0.036,2.148c-0.024,0.264 -0.076,0.452 -0.156,0.564c-0.128,0.176 -0.328,0.264 -0.6,0.264c-0.256,0 -0.464,-0.088 -0.624,-0.264l-0.24,-0.264v-8.736l0.264,-0.288c0.16,-0.208 0.36,-0.312 0.6,-0.312zM208.456,271.615h17.088l0.264,0.288c0.16,0.176 0.24,0.376 0.24,0.6c0,0.16 -0.048,0.304 -0.144,0.432c-0.08,0.112 -2.352,1.288 -6.816,3.528l-6.648,3.336h6.504l6.552,0.024l0.288,0.264l0.264,0.288v8.832l-0.48,0.48h-17.112l-0.216,-0.24c-0.176,-0.176 -0.264,-0.368 -0.264,-0.576c0,-0.224 0.104,-0.424 0.312,-0.6l0.312,-0.24h15.792v-6.552h-15.936l-0.216,-0.24c-0.16,-0.16 -0.24,-0.36 -0.24,-0.6c0,-0.208 0.056,-0.368 0.168,-0.48c0.144,-0.144 2.408,-1.32 6.792,-3.528l6.6,-3.312c-1.456,0 -3.656,-0.016 -6.6,-0.048c-2.944,-0.032 -5.144,-0.048 -6.6,-0.048l-0.192,-0.24c-0.128,-0.16 -0.192,-0.336 -0.192,-0.528c0,-0.256 0.088,-0.456 0.264,-0.6zM187.456,271.615h8.856l0.264,0.24c0.176,0.208 0.264,0.416 0.264,0.624c0,0.16 -0.18,0.44 -0.54,0.84c-0.36,0.4 -1.34,1.4 -2.94,3l-3.504,3.504h7.248c4.848,0 7.344,0.04 7.488,0.12c0.304,0.16 0.456,0.408 0.456,0.744c0,0.16 -0.088,0.344 -0.264,0.552c-0.176,0.208 -0.656,0.712 -1.44,1.512c-1.152,1.152 -1.728,1.752 -1.728,1.8c0,0.048 0.44,0.568 1.32,1.56c1.104,1.248 1.732,1.976 1.884,2.184c0.152,0.208 0.228,0.4 0.228,0.576c0,0.224 -0.088,0.416 -0.264,0.576c-0.176,0.16 -0.376,0.24 -0.6,0.24c-0.176,0 -0.32,-0.048 -0.432,-0.144c-0.112,-0.08 -1.032,-1.112 -2.76,-3.096c-0.064,-0.064 -0.144,-0.16 -0.24,-0.288c-0.72,-0.816 -1.104,-1.344 -1.152,-1.584l-0.024,-0.144c0,-0.048 0.004,-0.092 0.012,-0.132c0.008,-0.04 0.024,-0.088 0.048,-0.144c0.024,-0.056 0.048,-0.104 0.072,-0.144c0.024,-0.04 0.064,-0.088 0.12,-0.144c0.056,-0.056 0.104,-0.108 0.144,-0.156c0.04,-0.048 0.1,-0.112 0.18,-0.192c0.08,-0.08 0.144,-0.144 0.192,-0.192c0.048,-0.048 0.128,-0.124 0.24,-0.228c0.112,-0.104 0.2,-0.188 0.264,-0.252c0.848,-0.816 1.272,-1.248 1.272,-1.296c0,-0.048 -2.248,-0.072 -6.744,-0.072h-6.744v7.68l-0.24,0.264c-0.176,0.176 -0.376,0.264 -0.6,0.264c-0.224,0 -0.416,-0.08 -0.576,-0.24l-0.24,-0.24v-17.112zM178.464,271.615c0.224,0 0.416,0.08 0.576,0.24l0.24,0.264v15.912h1.56c0.992,0 1.616,0.048 1.872,0.144c0.256,0.096 0.384,0.344 0.384,0.744c0,0.192 -0.08,0.368 -0.24,0.528l-0.24,0.24h-4.512l-0.48,-0.48v-17.088l0.264,-0.264c0.16,-0.16 0.352,-0.24 0.576,-0.24zM174.096,271.615c0.208,0 0.392,0.072 0.552,0.216c0.16,0.144 0.24,0.328 0.24,0.552c0,0.176 -1.38,3.04 -4.14,8.592c-2.76,5.552 -4.22,8.392 -4.38,8.52c-0.128,0.112 -0.296,0.168 -0.504,0.168c-0.224,0 -0.42,-0.068 -0.588,-0.204c-0.168,-0.136 -0.252,-0.308 -0.252,-0.516c0,-0.16 1.36,-2.98 4.08,-8.46c2.72,-5.48 4.176,-8.34 4.368,-8.58c0.144,-0.192 0.352,-0.288 0.624,-0.288zM133.208,271.351h1.992l4.392,0.024l0.24,0.264c0.144,0.16 0.216,0.344 0.216,0.552c0,0.208 -0.08,0.392 -0.24,0.552l-0.24,0.24l-3.24,0.024c-1.184,0.016 -2.464,0.024 -3.84,0.024c-0.656,0 -1.116,-0.008 -1.38,-0.024c-0.264,-0.016 -0.42,-0.036 -0.468,-0.06c-0.048,-0.024 -0.112,-0.076 -0.192,-0.156c-0.176,-0.16 -0.264,-0.368 -0.264,-0.624c0,-0.336 0.152,-0.584 0.456,-0.744c0.096,-0.048 0.952,-0.072 2.568,-0.072zM122.912,271.351c0.24,0.064 0.4,0.152 0.48,0.264c0.096,0.096 0.156,0.344 0.18,0.744c0.024,0.4 0.044,1.504 0.06,3.312l0.024,3.84l7.968,0.024l7.968,0.048l0.24,0.264l0.216,0.264v8.784c-0.048,0.064 -0.124,0.156 -0.228,0.276c-0.104,0.12 -0.18,0.212 -0.228,0.276h-17.088l-0.264,-0.24c-0.176,-0.16 -0.264,-0.36 -0.264,-0.6c0,-0.24 0.088,-0.44 0.264,-0.6l0.264,-0.24c1.76,0 4.408,-0.008 7.944,-0.024c3.536,-0.016 6.184,-0.024 7.944,-0.024v-6.432h-15.816l-0.288,-0.288l-0.312,-0.264v-8.88l0.312,-0.264c0.224,-0.192 0.432,-0.272 0.624,-0.24z"/><path d="M171.1,306.087l-2.64,2.64h8.448l1.608,-1.248c1.12,-0.864 1.68,-1.304 1.68,-1.32c0,-0.048 -1.512,-0.072 -4.536,-0.072zM145.212,302.271v5.328l2.64,-2.64l2.64,-2.664c0,-0.016 -0.88,-0.024 -2.64,-0.024zM144.036,300.615h8.808l0.288,0.288c0.176,0.176 0.264,0.344 0.264,0.504c0,0.176 -0.168,0.456 -0.504,0.84c-0.576,0.624 -1.736,1.808 -3.48,3.552l-2.952,2.976c1.216,0 3.032,0.012 5.448,0.036c2.416,0.024 4.224,0.044 5.424,0.06l2.088,2.088c1.376,1.376 2.104,2.16 2.184,2.352c0.032,0.144 0.016,0.296 -0.048,0.456c-0.048,0.112 -0.544,0.724 -1.488,1.836c-0.944,1.112 -1.688,1.956 -2.232,2.532c-0.352,0.368 -0.648,0.552 -0.888,0.552c-0.24,0 -0.436,-0.076 -0.588,-0.228c-0.152,-0.152 -0.228,-0.34 -0.228,-0.564c0,-0.24 0.096,-0.472 0.288,-0.696c0.032,-0.048 0.136,-0.168 0.312,-0.36c0.176,-0.192 0.4,-0.444 0.672,-0.756c0.272,-0.312 0.52,-0.596 0.744,-0.852c0.944,-1.056 1.416,-1.624 1.416,-1.704c0,-0.064 -0.488,-0.584 -1.464,-1.56l-1.512,-1.488h-11.376v7.608l-0.24,0.288c-0.16,0.208 -0.368,0.312 -0.624,0.312c-0.208,0 -0.392,-0.08 -0.552,-0.24l-0.24,-0.24v-17.112zM187.372,300.567c0.224,0 0.432,0.096 0.624,0.288l0.216,0.264v14.688l3.504,-3.504c1.584,-1.6 2.58,-2.588 2.988,-2.964c0.408,-0.376 0.684,-0.564 0.828,-0.564c0.144,0 0.412,0.18 0.804,0.54c0.392,0.36 1.372,1.324 2.94,2.892c2.304,2.304 3.48,3.456 3.528,3.456c0.048,0 0.072,-1.048 0.072,-3.144c0,-2.096 0.032,-3.208 0.096,-3.336c0.128,-0.272 0.4,-0.408 0.816,-0.408c0.096,0 0.16,0.008 0.192,0.024c0.224,0.08 0.36,0.208 0.408,0.384c0.096,0.336 0.144,1.864 0.144,4.584v4.416l-0.312,0.24c-0.192,0.16 -0.336,0.24 -0.432,0.24c-0.208,0 -0.544,-0.216 -1.008,-0.648c-0.464,-0.432 -1.56,-1.512 -3.288,-3.24c-2.608,-2.608 -3.928,-3.912 -3.96,-3.912c-0.016,0 -1.328,1.304 -3.936,3.912c-1.728,1.728 -2.828,2.812 -3.3,3.252c-0.472,0.44 -0.812,0.66 -1.02,0.66c-0.096,0 -0.24,-0.096 -0.432,-0.288l-0.288,-0.288v-8.496v-2.04c0,-3.344 0.02,-5.316 0.06,-5.916c0.04,-0.6 0.172,-0.94 0.396,-1.02c0.016,0 0.028,-0.004 0.036,-0.012c0.008,-0.008 0.02,-0.012 0.036,-0.012c0.064,-0.032 0.16,-0.048 0.288,-0.048zM174.58,300.543c0.224,0 0.424,0.084 0.6,0.252c0.176,0.168 0.264,0.364 0.264,0.588c0,0.16 -0.068,0.328 -0.204,0.504c-0.136,0.176 -0.492,0.552 -1.068,1.128c-0.784,0.784 -1.176,1.216 -1.176,1.296l0.024,0.024c0.048,0.048 1.76,0.072 5.136,0.072h5.016l0.24,0.216c0.16,0.144 0.24,0.36 0.24,0.648c0,0.208 -0.04,0.352 -0.12,0.432c-0.176,0.176 -0.832,0.696 -1.968,1.56l-1.848,1.416l1.704,0.048c0.848,0.032 1.36,0.056 1.536,0.072c0.176,0.016 0.32,0.08 0.432,0.192c0.176,0.16 0.264,0.36 0.264,0.6c0,0.24 -0.088,0.44 -0.264,0.6l-0.264,0.24c-0.64,0 -1.604,0.008 -2.892,0.024c-1.288,0.016 -2.252,0.024 -2.892,0.024l-2.928,2.256c-2.416,1.84 -3.808,2.904 -4.176,3.192c-0.8,0.624 -1.2,0.952 -1.2,0.984c0,0.032 2.36,0.048 7.08,0.048l7.056,0.024l0.24,0.264c0.16,0.176 0.24,0.368 0.24,0.576c0,0.24 -0.104,0.44 -0.312,0.6l-0.312,0.264c-1.888,0 -4.72,-0.008 -8.496,-0.024c-3.776,-0.016 -6.608,-0.024 -8.496,-0.024l-0.24,-0.288c-0.144,-0.16 -0.216,-0.336 -0.216,-0.528c0,-0.224 0.096,-0.416 0.288,-0.576c0.176,-0.176 1.664,-1.344 4.464,-3.504l4.2,-3.216c-0.944,-0.016 -2.36,-0.036 -4.248,-0.06c-1.888,-0.024 -3.304,-0.036 -4.248,-0.036l-0.24,-0.288c-0.16,-0.208 -0.24,-0.368 -0.24,-0.48c0,-0.256 0.536,-0.92 1.608,-1.992l1.584,-1.584h-2.616l-0.264,-0.288c-0.192,-0.192 -0.288,-0.4 -0.288,-0.624c0,-0.192 0.056,-0.352 0.168,-0.48c0.096,-0.112 0.236,-0.176 0.42,-0.192c0.184,-0.016 0.86,-0.04 2.028,-0.072l2.256,-0.048l1.872,-1.872c1.248,-1.248 1.928,-1.888 2.04,-1.92c0.096,-0.032 0.168,-0.048 0.216,-0.048z"/><path d="M284.182,174.26h3.168c2.784,0 4.428,0.024 4.932,0.072c0.504,0.048 0.796,0.192 0.876,0.432c0.016,0.032 0.024,0.056 0.024,0.072c0.032,0.128 0.048,0.224 0.048,0.288c0,0.208 -0.112,0.424 -0.336,0.648c-0.112,0.096 -0.532,0.152 -1.26,0.168c-0.728,0.016 -3.132,0.032 -7.212,0.048h-3.648c-3.12,0 -4.776,-0.024 -4.968,-0.072c-0.432,-0.128 -0.648,-0.408 -0.648,-0.84c0,-0.368 0.184,-0.624 0.552,-0.768c0.096,-0.032 2.92,-0.048 8.472,-0.048zM345.446,174.068c7.168,0 10.896,0.032 11.184,0.096c0.192,0.048 0.348,0.148 0.468,0.3c0.12,0.152 0.18,0.324 0.18,0.516c0,0.24 -0.096,0.44 -0.288,0.6c-0.096,0.08 -0.576,0.132 -1.44,0.156c-0.864,0.024 -3.256,0.044 -7.176,0.06h-2.928c-3.616,0 -5.536,-0.032 -5.76,-0.096c-0.128,-0.064 -0.252,-0.18 -0.372,-0.348c-0.12,-0.168 -0.18,-0.324 -0.18,-0.468c0,-0.112 0.088,-0.26 0.264,-0.444c0.176,-0.184 0.328,-0.292 0.456,-0.324c0.128,-0.032 1.992,-0.048 5.592,-0.048zM288.31,163.412c-1.488,0 -2.4,0.008 -2.736,0.024c-0.336,0.016 -0.512,0.056 -0.528,0.12c-0.048,0.192 -0.072,0.632 -0.072,1.32v1.176h6.552v-2.64zM276.79,163.412v2.64h6.528v-2.64zM275.902,157.844c0.128,0 0.288,0.048 0.48,0.144c0.192,0.096 0.304,0.192 0.336,0.288c0.048,0.192 0.072,0.784 0.072,1.776v1.584h6.528v-1.536c0,-0.816 0.028,-1.348 0.084,-1.596c0.056,-0.248 0.196,-0.436 0.42,-0.564c0.096,-0.048 0.208,-0.072 0.336,-0.072c0.24,0 0.448,0.088 0.624,0.264c0.128,0.128 0.192,0.744 0.192,1.848v1.656h6.552v-3.24l0.288,-0.264c0.192,-0.192 0.4,-0.288 0.624,-0.288c0.304,0 0.536,0.16 0.696,0.48c0.096,0.192 0.144,1.712 0.144,4.56v4.248c-0.128,0.144 -0.336,0.36 -0.624,0.648l-8.376,0.024h-1.944c-3.392,0 -5.396,-0.024 -6.012,-0.072c-0.616,-0.048 -0.972,-0.184 -1.068,-0.408c0,-0.016 -0.004,-0.028 -0.012,-0.036c-0.008,-0.008 -0.012,-0.02 -0.012,-0.036c-0.064,-0.224 -0.096,-1.264 -0.096,-3.12v-1.488l0.024,-4.344l0.288,-0.216c0.192,-0.16 0.344,-0.24 0.456,-0.24zM318.998,157.748c0.352,0 0.608,0.184 0.768,0.552c0.064,0.224 0.096,2.128 0.096,5.712v2.928l-0.024,8.352l-0.24,0.264c-0.16,0.176 -0.36,0.264 -0.6,0.264c-0.24,0 -0.44,-0.088 -0.6,-0.264l-0.216,-0.264l-0.048,-8.352v-4.128c0,-2.24 0.02,-3.584 0.06,-4.032c0.04,-0.448 0.156,-0.744 0.348,-0.888c0.128,-0.096 0.28,-0.144 0.456,-0.144zM313.366,157.748c0.288,0 0.528,0.128 0.72,0.384c0.096,0.112 0.144,1.632 0.144,4.56v4.392l-0.264,0.264c-0.176,0.176 -0.376,0.264 -0.6,0.264c-0.208,0 -0.392,-0.08 -0.552,-0.24l-0.264,-0.24v-3.504c0,-2.32 -0.016,-3.512 -0.048,-3.576c-0.048,-0.016 -1.136,0.504 -3.264,1.56l-3.216,1.608v1.848c0,0.928 -0.02,1.528 -0.06,1.8c-0.04,0.272 -0.148,0.472 -0.324,0.6c-0.128,0.096 -0.272,0.144 -0.432,0.144c-0.24,0 -0.44,-0.08 -0.6,-0.24c-0.112,-0.112 -0.18,-0.248 -0.204,-0.408c-0.024,-0.16 -0.036,-0.616 -0.036,-1.368c0,-1.008 -0.024,-1.512 -0.072,-1.512c-0.064,0 -0.964,0.444 -2.7,1.332c-1.736,0.888 -2.604,1.348 -2.604,1.38c0,0.048 1.232,0.688 3.696,1.92c2.464,1.232 4.948,2.48 7.452,3.744c2.504,1.264 3.804,1.952 3.9,2.064c0.112,0.128 0.168,0.288 0.168,0.48c0,0.208 -0.076,0.396 -0.228,0.564c-0.152,0.168 -0.348,0.252 -0.588,0.252c-0.24,0 -3.12,-1.388 -8.64,-4.164c-5.52,-2.776 -8.336,-4.236 -8.448,-4.38c-0.096,-0.144 -0.144,-0.32 -0.144,-0.528c0,-0.176 0.04,-0.32 0.12,-0.432c0.08,-0.112 1.44,-0.832 4.08,-2.16l3.936,-2.016l0.072,-1.92c0.032,-1.264 0.08,-1.96 0.144,-2.088c0.112,-0.24 0.32,-0.36 0.624,-0.36c0.208,0 0.4,0.072 0.576,0.216l0.312,0.264v1.512c0,0.992 0.024,1.488 0.072,1.488c0.032,0 1.228,-0.584 3.588,-1.752c2.36,-1.168 3.588,-1.752 3.684,-1.752zM331.43,157.724c0.384,0 0.64,0.224 0.768,0.672c0.064,0.256 0.096,0.84 0.096,1.752v1.392h2.352l-0.072,-1.344c-0.016,-0.208 -0.024,-0.472 -0.024,-0.792c0,-0.8 0.136,-1.304 0.408,-1.512c0.144,-0.096 0.296,-0.144 0.456,-0.144c0.224,0 0.424,0.088 0.6,0.264l0.264,0.288v8.712l-0.24,0.288c-0.176,0.208 -0.384,0.312 -0.624,0.312c-0.16,0 -0.328,-0.064 -0.504,-0.192c-0.112,-0.096 -0.184,-0.244 -0.216,-0.444c-0.032,-0.2 -0.056,-0.764 -0.072,-1.692l-0.048,-1.92l-1.128,-0.048l-1.152,-0.024c0,1.344 -0.008,3.348 -0.024,6.012c-0.016,2.664 -0.024,4.66 -0.024,5.988l-0.24,0.264c-0.176,0.176 -0.392,0.264 -0.648,0.264c-0.144,0 -0.272,-0.024 -0.384,-0.072c-0.224,-0.08 -0.356,-0.416 -0.396,-1.008c-0.04,-0.592 -0.06,-2.432 -0.06,-5.52v-5.904h-2.424l-0.024,1.896c-0.016,0.896 -0.036,1.444 -0.06,1.644c-0.024,0.2 -0.092,0.364 -0.204,0.492c-0.176,0.176 -0.376,0.264 -0.6,0.264c-0.24,0 -0.432,-0.08 -0.576,-0.24l-0.24,-0.24l0.024,-4.392c0,-2.32 0.02,-3.696 0.06,-4.128c0.04,-0.432 0.164,-0.688 0.372,-0.768c0.192,-0.064 0.328,-0.096 0.408,-0.096c0.16,0 0.328,0.072 0.504,0.216l0.288,0.24c0.016,0.368 0.024,0.924 0.024,1.668c0,0.744 0.008,1.3 0.024,1.668h2.424v-3.24l0.288,-0.288c0.192,-0.192 0.4,-0.288 0.624,-0.288zM352.79,157.652h3.912c0.064,0.064 0.164,0.152 0.3,0.264c0.136,0.112 0.236,0.192 0.3,0.24v4.32c0,2.32 -0.02,3.708 -0.06,4.164c-0.04,0.456 -0.164,0.724 -0.372,0.804c-0.112,0.048 -0.24,0.072 -0.384,0.072c-0.272,0 -0.48,-0.072 -0.624,-0.216c-0.112,-0.112 -0.176,-0.268 -0.192,-0.468c-0.016,-0.2 -0.024,-0.836 -0.024,-1.908c0,-1.616 -0.024,-2.896 -0.072,-3.84l-0.072,-1.68h-6.408v3.648c0,1.856 -0.02,3.008 -0.06,3.456c-0.04,0.448 -0.14,0.736 -0.3,0.864c-0.128,0.096 -0.28,0.144 -0.456,0.144c-0.288,0 -0.504,-0.088 -0.648,-0.264l-0.24,-0.24l-0.024,-3.744l-0.048,-3.768c-0.848,0 -2.112,-0.008 -3.792,-0.024c-1.68,-0.016 -2.944,-0.024 -3.792,-0.024l-0.24,-0.216c-0.176,-0.144 -0.28,-0.304 -0.312,-0.48v-0.048c-0.016,-0.032 -0.024,-0.056 -0.024,-0.072c0,-0.144 0.044,-0.296 0.132,-0.456c0.088,-0.16 0.188,-0.264 0.3,-0.312c0.096,-0.048 1.672,-0.088 4.728,-0.12c0.992,-0.016 2.608,-0.036 4.848,-0.06c2.24,-0.024 3.448,-0.036 3.624,-0.036zM262.206,157.628c0.24,0 0.44,0.088 0.6,0.264c0.112,0.128 0.18,0.284 0.204,0.468c0.024,0.184 0.044,0.668 0.06,1.452l0.048,1.632h6.408l0.048,-1.632c0.016,-0.784 0.036,-1.268 0.06,-1.452c0.024,-0.184 0.092,-0.34 0.204,-0.468c0.176,-0.176 0.376,-0.264 0.6,-0.264c0.432,0 0.704,0.208 0.816,0.624c0.016,0.08 0.024,2.944 0.024,8.592l-0.024,8.4l-0.264,0.24c-0.192,0.144 -0.384,0.216 -0.576,0.216c-0.304,0 -0.544,-0.16 -0.72,-0.48c-0.096,-0.192 -0.144,-2.256 -0.144,-6.192v-5.904h-6.432l-0.048,1.944l-0.024,1.968l-0.264,0.24c-0.176,0.16 -0.368,0.24 -0.576,0.24c-0.336,0 -0.576,-0.184 -0.72,-0.552c-0.096,-0.24 -0.144,-0.936 -0.144,-2.088v-1.752h-3.24l-3.264,0.048v5.448v2.424c0,2.128 -0.012,3.364 -0.036,3.708c-0.024,0.344 -0.108,0.58 -0.252,0.708c-0.16,0.16 -0.344,0.24 -0.552,0.24c-0.208,0 -0.4,-0.088 -0.576,-0.264l-0.288,-0.288v-8.424c0,-4.336 0.016,-6.876 0.048,-7.62c0.032,-0.744 0.144,-1.188 0.336,-1.332c0.08,-0.08 0.216,-0.12 0.408,-0.12c0.256,0 0.464,0.08 0.624,0.24c0.112,0.112 0.18,0.252 0.204,0.42c0.024,0.168 0.036,0.66 0.036,1.476v1.656h6.528l0.048,-1.632c0.016,-0.784 0.036,-1.268 0.06,-1.452c0.024,-0.184 0.092,-0.34 0.204,-0.468c0.16,-0.176 0.352,-0.264 0.576,-0.264z"/><path d="M262.382,203.092c5.504,0 8.328,0.04 8.472,0.12c0.256,0.144 0.384,0.368 0.384,0.672c0,0.384 -0.168,0.648 -0.504,0.792c-0.224,0.096 -3.176,0.144 -8.856,0.144c-5.104,0 -7.8,-0.04 -8.088,-0.12c-0.336,-0.112 -0.504,-0.352 -0.504,-0.72c0,-0.464 0.216,-0.752 0.648,-0.864c0.064,-0.016 2.88,-0.024 8.448,-0.024zM302.406,196.612l-0.048,0.552c-0.016,0.144 -0.024,0.408 -0.024,0.792v0.288l0.072,0.504h2.016v-2.136zM340.03,186.724c0.256,0 0.456,0.088 0.6,0.264l0.24,0.24v8.76l-0.24,0.264c-0.176,0.176 -0.384,0.264 -0.624,0.264c-0.224,0 -0.408,-0.08 -0.552,-0.24l-0.24,-0.24v-8.808l0.24,-0.24c0.144,-0.176 0.336,-0.264 0.576,-0.264zM318.054,186.724c0.208,0 0.4,0.088 0.576,0.264c0.112,0.112 0.184,0.232 0.216,0.36c0.032,0.128 0.048,0.408 0.048,0.84c0,0.848 -0.008,1.4 -0.024,1.656l-0.024,0.696h6.576v-1.632c0,-0.816 0.012,-1.308 0.036,-1.476c0.024,-0.168 0.092,-0.316 0.204,-0.444c0.176,-0.176 0.368,-0.264 0.576,-0.264c0.208,0 0.416,0.08 0.624,0.24l0.264,0.24l0.024,1.68l0.048,1.656h6.432v-1.584v-0.624c0,-0.48 0.012,-0.784 0.036,-0.912c0.024,-0.128 0.092,-0.256 0.204,-0.384c0.16,-0.208 0.368,-0.312 0.624,-0.312c0.224,0 0.424,0.088 0.6,0.264l0.24,0.264l-0.024,2.16c0,0.4 -0.004,1.136 -0.012,2.208c-0.008,1.072 -0.012,1.816 -0.012,2.232v2.28l-0.24,0.24c-0.16,0.16 -0.336,0.24 -0.528,0.24c-0.176,0 -0.368,-0.08 -0.576,-0.24l-0.264,-0.24l-0.024,-1.968l-0.048,-1.944h-6.432v1.8c0,1.216 -0.048,1.912 -0.144,2.088c-0.176,0.336 -0.424,0.504 -0.744,0.504c-0.208,0 -0.4,-0.088 -0.576,-0.264c-0.112,-0.128 -0.184,-0.292 -0.216,-0.492c-0.032,-0.2 -0.056,-0.756 -0.072,-1.668l-0.048,-1.92h-6.456c-0.016,1.2 -0.024,3.008 -0.024,5.424c0,2.416 -0.008,4.232 -0.024,5.448h15.936l0.24,0.264c0.176,0.176 0.264,0.376 0.264,0.6c0,0.256 -0.096,0.456 -0.288,0.6c-0.128,0.112 -0.564,0.176 -1.308,0.192c-0.744,0.016 -3.236,0.024 -7.476,0.024h-8.52c-0.224,-0.288 -0.392,-0.496 -0.504,-0.624v-16.848l0.264,-0.312c0.176,-0.208 0.368,-0.312 0.576,-0.312zM313.566,186.724c0.144,0 0.272,0.024 0.384,0.072c0.224,0.08 0.352,0.496 0.384,1.248c0.032,0.752 0.048,3.344 0.048,7.776v8.376l-0.24,0.312c-0.176,0.208 -0.384,0.312 -0.624,0.312c-0.16,0 -0.328,-0.064 -0.504,-0.192l-0.24,-0.192c0,-0.864 -0.016,-2.16 -0.048,-3.888c-0.032,-1.728 -0.048,-3.024 -0.048,-3.888c-0.72,0 -1.804,-0.008 -3.252,-0.024c-1.448,-0.016 -2.532,-0.024 -3.252,-0.024v1.56c0,0.784 -0.02,1.3 -0.06,1.548c-0.04,0.248 -0.148,0.436 -0.324,0.564c-0.096,0.08 -0.896,0.12 -2.4,0.12h-2.28c-0.064,-0.064 -0.152,-0.164 -0.264,-0.3c-0.112,-0.136 -0.192,-0.236 -0.24,-0.3v-4.248c0.048,-0.064 0.128,-0.164 0.24,-0.3c0.112,-0.136 0.2,-0.236 0.264,-0.3h3.312v-6.552h-3.768c-2.48,0 -3.8,-0.032 -3.96,-0.096c-0.112,-0.064 -0.212,-0.176 -0.3,-0.336c-0.088,-0.16 -0.132,-0.312 -0.132,-0.456c0,-0.016 0,-0.04 0,-0.072l0.024,-0.048c0.016,-0.096 0.104,-0.24 0.264,-0.432l0.192,-0.216h4.44c2.976,0 4.512,0.04 4.608,0.12c0.176,0.144 0.284,0.42 0.324,0.828c0.04,0.408 0.06,1.564 0.06,3.468v3.792h6.552v-3.888l-0.024,-3.84l0.24,-0.264c0.144,-0.16 0.352,-0.24 0.624,-0.24zM283.262,186.652c0.096,0 0.232,0.048 0.408,0.144c0.208,0.112 0.34,0.312 0.396,0.6c0.056,0.288 0.084,1.048 0.084,2.28v2.064l-0.024,4.272l-0.24,0.24c-0.176,0.176 -0.376,0.264 -0.6,0.264c-0.256,0 -0.464,-0.104 -0.624,-0.312l-0.24,-0.312v-4.248c0,-2.288 0.02,-3.64 0.06,-4.056c0.04,-0.416 0.18,-0.688 0.42,-0.816c0.16,-0.08 0.28,-0.12 0.36,-0.12zM275.006,186.652c0.144,0 0.304,0.048 0.48,0.144c0.176,0.096 0.28,0.2 0.312,0.312c0.048,0.096 0.072,2.672 0.072,7.728c0,5.04 0.016,7.592 0.048,7.656c0.048,0.048 2.512,-1.152 7.392,-3.6l7.296,-3.648v-3.864c0,-2.128 0.028,-3.404 0.084,-3.828c0.056,-0.424 0.22,-0.692 0.492,-0.804c0.096,-0.048 0.2,-0.072 0.312,-0.072c0.352,0 0.6,0.152 0.744,0.456c0.096,0.192 0.144,1.624 0.144,4.296c0,2.928 -0.048,4.488 -0.144,4.68c-0.08,0.144 -2.288,1.304 -6.624,3.48c-4.848,2.432 -7.792,3.904 -8.832,4.416c-1.04,0.512 -1.648,0.768 -1.824,0.768c-0.016,0 -0.072,-0.016 -0.168,-0.048c-0.16,-0.064 -0.264,-0.112 -0.312,-0.144c-0.048,-0.032 -0.1,-0.208 -0.156,-0.528c-0.056,-0.32 -0.088,-0.772 -0.096,-1.356c-0.008,-0.584 -0.012,-1.5 -0.012,-2.748v-4.368l0.048,-8.472l0.264,-0.24c0.176,-0.144 0.336,-0.216 0.48,-0.216zM254.054,186.652c0.112,0 0.248,0.048 0.408,0.144c0.208,0.112 0.344,0.308 0.408,0.588c0.064,0.28 0.096,0.82 0.096,1.62c0,0.976 0.04,1.464 0.12,1.464h0.696c3.648,0 5.488,-0.016 5.52,-0.048l0.024,-0.216c0,-0.144 0.004,-0.348 0.012,-0.612c0.008,-0.264 0.012,-0.524 0.012,-0.78v-1.608l0.336,-0.288c0.176,-0.176 0.368,-0.264 0.576,-0.264c0.176,0 0.352,0.088 0.528,0.264l0.288,0.288v3.24h6.552l-0.048,-1.608l-0.024,-1.608l0.336,-0.312c0.176,-0.176 0.36,-0.264 0.552,-0.264c0.176,0 0.352,0.08 0.528,0.24l0.288,0.264v8.88l-0.24,0.24c-0.176,0.176 -0.376,0.264 -0.6,0.264c-0.256,0 -0.456,-0.096 -0.6,-0.288c-0.096,-0.128 -0.156,-0.3 -0.18,-0.516c-0.024,-0.216 -0.036,-0.756 -0.036,-1.62v-1.896h-6.528v1.896c0,0.912 -0.012,1.464 -0.036,1.656c-0.024,0.192 -0.092,0.36 -0.204,0.504c-0.176,0.192 -0.384,0.288 -0.624,0.288c-0.224,0 -0.392,-0.08 -0.504,-0.24c-0.128,-0.176 -0.212,-0.408 -0.252,-0.696c-0.04,-0.288 -0.06,-0.88 -0.06,-1.776v-1.632h-6.432l-0.024,1.896c-0.016,0.896 -0.036,1.444 -0.06,1.644c-0.024,0.2 -0.092,0.364 -0.204,0.492c-0.16,0.176 -0.36,0.264 -0.6,0.264c-0.24,0 -0.44,-0.088 -0.6,-0.264l-0.216,-0.24l-0.048,-4.176v-1.8c0,-1.36 0.028,-2.216 0.084,-2.568c0.056,-0.352 0.18,-0.576 0.372,-0.672c0.176,-0.096 0.304,-0.144 0.384,-0.144zM348.238,186.628c0.256,0 0.456,0.088 0.6,0.264l0.24,0.24v6.504l3.504,-3.504c1.728,-1.712 2.76,-2.72 3.096,-3.024c0.336,-0.304 0.592,-0.456 0.768,-0.456c0.256,0 0.464,0.072 0.624,0.216l0.216,0.192v8.976l-0.24,0.24c-0.16,0.16 -0.336,0.24 -0.528,0.24c-0.208,0 -0.408,-0.096 -0.6,-0.288l-0.288,-0.288v-6.408l-7.608,7.584c-3.84,3.824 -6.084,6.048 -6.732,6.672c-0.648,0.624 -1.06,0.936 -1.236,0.936c-0.24,0 -0.44,-0.076 -0.6,-0.228c-0.16,-0.152 -0.24,-0.348 -0.24,-0.588c0,-0.16 0.208,-0.464 0.624,-0.912c0.416,-0.448 1.576,-1.64 3.48,-3.576l4.08,-4.128l0.024,-4.08v-4.08l0.24,-0.24c0.144,-0.176 0.336,-0.264 0.576,-0.264z"/><path d="M261.87,231.044h8.832l0.264,0.288c0.176,0.176 0.264,0.36 0.264,0.552c0,0.208 -0.088,0.4 -0.264,0.576l-0.264,0.264h-8.856l-0.24,-0.264c-0.176,-0.176 -0.264,-0.368 -0.264,-0.576c0,-0.24 0.088,-0.432 0.264,-0.576zM285.094,220.508v2.736c0.72,-0.016 1.804,-0.024 3.252,-0.024c1.448,0 2.532,-0.008 3.252,-0.024c0,-0.288 0.008,-0.736 0.024,-1.344c0.016,-0.608 0.024,-1.056 0.024,-1.344zM276.886,220.508v2.688l3.24,0.024h3.216v-2.712zM327.998,216.596v5.328l2.64,-2.64l2.64,-2.664c0,-0.016 -0.88,-0.024 -2.64,-0.024zM292.51,214.988c0.208,0 0.4,0.096 0.576,0.288l0.216,0.264c-0.016,1.888 -0.024,4.732 -0.024,8.532c0,3.8 -0.008,6.652 -0.024,8.556c-0.176,0.176 -0.36,0.336 -0.552,0.48h-8.448c-5.6,0 -8.48,-0.04 -8.64,-0.12c-0.128,-0.064 -0.24,-0.208 -0.336,-0.432c-0.064,-0.16 -0.096,-0.28 -0.096,-0.36c0,-0.208 0.104,-0.4 0.312,-0.576c0.08,-0.08 0.504,-0.128 1.272,-0.144c0.768,-0.016 3.056,-0.032 6.864,-0.048l7.968,-0.024c0,-0.72 0.008,-1.804 0.024,-3.252c0.016,-1.448 0.024,-2.532 0.024,-3.252h-7.848c-5.2,0 -7.912,-0.032 -8.136,-0.096c-0.256,-0.096 -0.408,-0.364 -0.456,-0.804c-0.048,-0.44 -0.072,-1.796 -0.072,-4.068c0,-2.736 0.032,-4.184 0.096,-4.344c0.144,-0.368 0.392,-0.552 0.744,-0.552c0.4,0 0.652,0.136 0.756,0.408c0.104,0.272 0.156,0.904 0.156,1.896v1.512h6.432l0.048,-1.656c0.016,-0.784 0.036,-1.268 0.06,-1.452c0.024,-0.184 0.092,-0.34 0.204,-0.468c0.16,-0.16 0.344,-0.24 0.552,-0.24c0.4,0 0.652,0.124 0.756,0.372c0.104,0.248 0.156,0.876 0.156,1.884v1.56h6.552v-1.704c0,-0.832 0.008,-1.332 0.024,-1.5c0.016,-0.168 0.08,-0.3 0.192,-0.396c0.208,-0.176 0.424,-0.264 0.648,-0.264zM300.982,214.94c2.64,0 4.072,0.016 4.296,0.048c0.192,0.048 1.436,1.208 3.732,3.48c2.296,2.272 3.46,3.408 3.492,3.408c0.016,0 0.024,-1.056 0.024,-3.168v-1.824c0,-0.928 0.048,-1.456 0.144,-1.584c0.128,-0.224 0.336,-0.336 0.624,-0.336c0.352,0 0.6,0.168 0.744,0.504c0.08,0.224 0.128,1.776 0.144,4.656l0.024,4.32l-8.664,8.664h-8.856l-0.288,-0.288c-0.176,-0.176 -0.264,-0.352 -0.264,-0.528c0,-0.096 0.04,-0.224 0.12,-0.384c0.096,-0.192 0.248,-0.312 0.456,-0.36c0.304,-0.064 1.64,-0.096 4.008,-0.096h4.056c1.648,-1.664 4.12,-4.144 7.416,-7.44l-3.024,-3c-2,-2 -3.032,-3 -3.096,-3c-0.048,0 -0.072,1.072 -0.072,3.216v3.144l-0.24,0.24c-0.16,0.16 -0.36,0.24 -0.6,0.24c-0.224,0 -0.408,-0.072 -0.552,-0.216c-0.112,-0.112 -0.18,-0.356 -0.204,-0.732c-0.024,-0.376 -0.044,-1.492 -0.06,-3.348l-0.024,-3.864h-3.72c-1.808,0 -2.9,-0.008 -3.276,-0.024c-0.376,-0.016 -0.636,-0.072 -0.78,-0.168c-0.272,-0.176 -0.408,-0.4 -0.408,-0.672c0,-0.304 0.16,-0.544 0.48,-0.72c0.144,-0.08 0.436,-0.128 0.876,-0.144c0.44,-0.016 1.604,-0.024 3.492,-0.024zM327.278,214.868l8.424,0.024l0.24,0.24l0.264,0.216v8.928l-0.24,0.24c-0.16,0.16 -0.352,0.24 -0.576,0.24c-0.24,0 -0.448,-0.096 -0.624,-0.288l-0.216,-0.264v-3.168c0,-2.112 -0.032,-3.168 -0.096,-3.168c-0.064,0 -1.728,1.648 -4.992,4.944c-4.256,4.272 -7.032,7.04 -8.328,8.304c-1.296,1.264 -2.016,1.896 -2.16,1.896c-0.144,0 -0.32,-0.088 -0.528,-0.264c-0.208,-0.16 -0.312,-0.36 -0.312,-0.6c0,-0.16 0.188,-0.444 0.564,-0.852c0.376,-0.408 1.556,-1.612 3.54,-3.612l4.104,-4.104v-6.984c-0.848,0 -2.132,-0.008 -3.852,-0.024c-1.72,-0.016 -3.012,-0.024 -3.876,-0.024l-0.24,-0.264c-0.144,-0.176 -0.216,-0.368 -0.216,-0.576c0,-0.368 0.168,-0.624 0.504,-0.768c0.096,-0.048 2.968,-0.072 8.616,-0.072zM339.878,214.844c0.096,0.032 0.2,0.064 0.312,0.096c0.288,0.112 0.46,0.364 0.516,0.756c0.056,0.392 0.084,1.62 0.084,3.684v3.768h1.008c0.944,0 2.04,-0.024 3.288,-0.072l2.256,-0.072v-7.656l0.216,-0.192c0.16,-0.16 0.352,-0.24 0.576,-0.24c0.208,0 0.4,0.072 0.576,0.216l0.24,0.168c0.016,0.864 0.036,2.164 0.06,3.9c0.024,1.736 0.036,3.036 0.036,3.9h6.456c0,-0.864 0.008,-2.156 0.024,-3.876c0.016,-1.72 0.024,-3.012 0.024,-3.876l0.288,-0.264c0.176,-0.16 0.352,-0.24 0.528,-0.24c0.176,0 0.36,0.096 0.552,0.288l0.288,0.264v8.88c-0.112,0.096 -0.28,0.256 -0.504,0.48c-1.776,0 -4.432,0.008 -7.968,0.024c-3.536,0.016 -6.184,0.024 -7.944,0.024v7.632l-0.288,0.288c-0.192,0.192 -0.352,0.288 -0.48,0.288c-0.144,0 -0.308,-0.052 -0.492,-0.156c-0.184,-0.104 -0.292,-0.204 -0.324,-0.3c-0.048,-0.192 -0.072,-3.08 -0.072,-8.664c0,-4.096 0.008,-6.544 0.024,-7.344c0.016,-0.8 0.064,-1.248 0.144,-1.344c0.176,-0.16 0.368,-0.28 0.576,-0.36zM253.566,214.652h8.976l0.48,0.48v7.704h6.552v-7.704l0.24,-0.24c0.16,-0.16 0.352,-0.24 0.576,-0.24c0.24,0 0.44,0.08 0.6,0.24l0.24,0.24v8.856l-0.528,0.528h-8.856l-0.48,-0.48v-7.728h-6.552v15.792l-0.264,0.312c-0.16,0.208 -0.352,0.312 -0.576,0.312c-0.208,0 -0.396,-0.08 -0.564,-0.24c-0.168,-0.16 -0.252,-0.336 -0.252,-0.528c0,-0.016 0,-0.18 0,-0.492c0,-0.312 -0.004,-0.74 -0.012,-1.284c-0.008,-0.544 -0.012,-1.152 -0.012,-1.824c0,-0.672 0,-1.452 0,-2.34c0,-0.888 0,-1.756 0,-2.604v-8.28l0.216,-0.264z"/><path d="M262.744,257.692v2.664h2.616c0.048,0 0.072,-0.44 0.072,-1.32v-1.272l-1.344,-0.048zM353.296,255.868c0.112,0 0.248,0.04 0.408,0.12c0.128,0.08 0.704,0.688 1.728,1.824c1.232,1.392 1.96,2.236 2.184,2.532c0.224,0.296 0.336,0.556 0.336,0.78c0,0.224 -0.084,0.408 -0.252,0.552c-0.168,0.144 -0.364,0.216 -0.588,0.216c-0.064,0 -0.16,-0.016 -0.288,-0.048c-0.144,-0.064 -0.896,-0.88 -2.256,-2.448c-0.88,-1.008 -1.448,-1.68 -1.704,-2.016c-0.256,-0.336 -0.384,-0.592 -0.384,-0.768c0,-0.128 0.096,-0.288 0.288,-0.48c0.176,-0.176 0.352,-0.264 0.528,-0.264zM345.184,255.868c0.112,0 0.264,0.08 0.456,0.24c0.192,0.16 0.288,0.368 0.288,0.624c0,0.16 -0.112,0.368 -0.336,0.624c-0.224,0.256 -0.92,0.968 -2.088,2.136c-1.152,1.152 -1.86,1.844 -2.124,2.076c-0.264,0.232 -0.476,0.348 -0.636,0.348c-0.24,0 -0.44,-0.104 -0.6,-0.312c-0.16,-0.192 -0.24,-0.344 -0.24,-0.456c0,-0.176 0.148,-0.432 0.444,-0.768c0.296,-0.336 0.964,-1.024 2.004,-2.064c1.04,-1.04 1.728,-1.708 2.064,-2.004c0.336,-0.296 0.592,-0.444 0.768,-0.444zM305.744,245.308v2.64c0,1.76 0.016,2.64 0.048,2.64c0.048,0 0.624,-0.552 1.728,-1.656c1.104,-1.104 1.952,-1.968 2.544,-2.592l0.984,-1.032zM266.32,243.988c0.224,0 0.416,0.08 0.576,0.24c0.128,0.128 0.208,0.76 0.24,1.896l0.048,1.68h2.064l0.024,-1.68c0.016,-0.832 0.036,-1.328 0.06,-1.488c0.024,-0.16 0.092,-0.296 0.204,-0.408c0.16,-0.16 0.352,-0.24 0.576,-0.24c0.224,0 0.424,0.096 0.6,0.288l0.24,0.264v8.76l-0.24,0.264c-0.144,0.192 -0.344,0.288 -0.6,0.288c-0.256,0 -0.456,-0.096 -0.6,-0.288c-0.112,-0.128 -0.176,-0.284 -0.192,-0.468c-0.016,-0.184 -0.024,-0.748 -0.024,-1.692v-1.896h-2.16v6.528h3.336l0.24,0.264c0.16,0.16 0.24,0.336 0.24,0.528c0,0.208 -0.096,0.408 -0.288,0.6l-0.288,0.288h-3.216l-0.048,1.944l-0.024,1.968l-0.264,0.24c-0.128,0.112 -0.308,0.18 -0.54,0.204c-0.232,0.024 -0.956,0.036 -2.172,0.036h-2.424c-0.064,-0.048 -0.164,-0.128 -0.3,-0.24c-0.136,-0.112 -0.236,-0.2 -0.3,-0.264v-2.52c0,-1.68 0.064,-2.6 0.192,-2.76c0.096,-0.112 0.244,-0.184 0.444,-0.216c0.2,-0.032 0.772,-0.056 1.716,-0.072l1.992,-0.048v-6.432l-1.344,-0.024l-1.344,-0.048v1.896c0,1.264 -0.064,1.984 -0.192,2.16c-0.176,0.224 -0.384,0.336 -0.624,0.336c-0.24,0 -0.464,-0.104 -0.672,-0.312c-0.112,-0.112 -0.168,-1.64 -0.168,-4.584v-1.968c0,-1.168 0.012,-1.888 0.036,-2.16c0.024,-0.272 0.076,-0.464 0.156,-0.576c0.144,-0.16 0.344,-0.24 0.6,-0.24c0.24,0 0.432,0.064 0.576,0.192c0.112,0.096 0.18,0.232 0.204,0.408c0.024,0.176 0.044,0.672 0.06,1.488l0.024,1.728c0.288,0 0.736,-0.008 1.344,-0.024c0.608,-0.016 1.056,-0.024 1.344,-0.024l0.048,-1.776c0,-0.176 0.004,-0.356 0.012,-0.54c0.008,-0.184 0.016,-0.348 0.024,-0.492c0.008,-0.144 0.016,-0.272 0.024,-0.384c0.008,-0.112 0.012,-0.2 0.012,-0.264v-0.096c0,-0.016 0.112,-0.072 0.336,-0.168c0.128,-0.064 0.272,-0.096 0.432,-0.096zM253.72,243.988c0.272,0 0.48,0.104 0.624,0.312c0.096,0.112 0.152,0.548 0.168,1.308c0.016,0.76 0.024,3.236 0.024,7.428v8.496l-0.288,0.288c-0.176,0.176 -0.352,0.264 -0.528,0.264c-0.176,0 -0.352,-0.08 -0.528,-0.24l-0.312,-0.24v-17.16l0.216,-0.192c0.176,-0.176 0.384,-0.264 0.624,-0.264zM348.952,243.82c0.224,0 0.424,0.088 0.6,0.264c0.112,0.128 0.18,0.284 0.204,0.468c0.024,0.184 0.044,0.668 0.06,1.452l0.048,1.632h6.432v-1.584v-0.624c0,-0.48 0.012,-0.784 0.036,-0.912c0.024,-0.128 0.092,-0.256 0.204,-0.384c0.16,-0.208 0.368,-0.312 0.624,-0.312c0.224,0 0.424,0.088 0.6,0.264l0.24,0.264l0.024,4.008v1.848c0,1.632 -0.008,2.504 -0.024,2.616c-0.032,0.272 -0.124,0.484 -0.276,0.636c-0.152,0.152 -0.332,0.228 -0.54,0.228c-0.192,0 -0.384,-0.072 -0.576,-0.216l-0.264,-0.24l-0.024,-1.968l-0.048,-1.944h-6.432v5.856c0,3.92 -0.048,5.984 -0.144,6.192c-0.176,0.368 -0.416,0.552 -0.72,0.552c-0.208,0 -0.408,-0.096 -0.6,-0.288l-0.288,-0.288v-12.024h-3.792c-2.464,0 -3.792,-0.024 -3.984,-0.072c-0.096,-0.032 -0.192,-0.144 -0.288,-0.336c-0.096,-0.192 -0.144,-0.352 -0.144,-0.48c0,-0.112 0.088,-0.272 0.264,-0.48l0.24,-0.312h7.704v-1.584v-0.624c0,-0.48 0.012,-0.784 0.036,-0.912c0.024,-0.128 0.092,-0.256 0.204,-0.384c0.16,-0.208 0.368,-0.312 0.624,-0.312zM275.744,243.724c0.176,0 0.368,0.08 0.576,0.24l0.264,0.24l0.024,3.864l0.048,3.888h6.408l0.048,-3.888l0.024,-3.864l0.264,-0.24c0.208,-0.16 0.392,-0.24 0.552,-0.24c0.176,0 0.368,0.08 0.576,0.24l0.264,0.24l0.024,3.864l0.048,3.888h6.432l0.024,-0.576v-3.84l0.024,-3.288l0.24,-0.264c0.176,-0.176 0.376,-0.264 0.6,-0.264c0.24,0 0.44,0.104 0.6,0.312l0.264,0.312c-0.016,0.976 -0.024,2.436 -0.024,4.38c0,1.944 -0.008,3.404 -0.024,4.38c-0.224,0.224 -0.384,0.392 -0.48,0.504h-15.888v6.528h15.816l0.264,0.24c0.192,0.144 0.288,0.344 0.288,0.6c0,0.256 -0.096,0.456 -0.288,0.6l-0.264,0.24h-16.968c-0.192,-0.144 -0.376,-0.304 -0.552,-0.48c0,-1.888 -0.008,-4.724 -0.024,-8.508c-0.016,-3.784 -0.024,-6.62 -0.024,-8.508l0.288,-0.312c0.192,-0.192 0.384,-0.288 0.576,-0.288zM296.408,243.652h8.496h3.84c2.24,0 3.596,0.012 4.068,0.036c0.472,0.024 0.764,0.076 0.876,0.156l0.264,0.192v9l-0.24,0.24c-0.16,0.16 -0.344,0.24 -0.552,0.24c-0.256,0 -0.464,-0.104 -0.624,-0.312l-0.24,-0.312v-6.36l-7.608,7.584c-3.68,3.68 -5.884,5.868 -6.612,6.564c-0.728,0.696 -1.172,1.044 -1.332,1.044c-0.24,0 -0.444,-0.084 -0.612,-0.252c-0.168,-0.168 -0.252,-0.372 -0.252,-0.612c0,-0.176 0.204,-0.484 0.612,-0.924c0.408,-0.44 1.572,-1.62 3.492,-3.54l4.104,-4.104v-6.984h-7.632l-0.288,-0.288c-0.176,-0.176 -0.264,-0.368 -0.264,-0.576c0,-0.208 0.08,-0.392 0.24,-0.552zM335.616,243.628c0.224,0 0.424,0.088 0.6,0.264l0.24,0.24v8.904l-0.24,0.24c-0.16,0.16 -0.36,0.24 -0.6,0.24c-0.176,0 -0.32,-0.048 -0.432,-0.144c-0.176,-0.144 -0.284,-0.444 -0.324,-0.9c-0.04,-0.456 -0.06,-1.78 -0.06,-3.972v-4.344l0.24,-0.264c0.144,-0.176 0.336,-0.264 0.576,-0.264zM318.744,243.628c0.096,0 0.192,0.032 0.288,0.096c4.928,4.784 7.424,7.192 7.488,7.224c0.016,0.016 0.032,-0.28 0.048,-0.888c0.016,-0.608 0.024,-1.448 0.024,-2.52v-3.408l0.24,-0.24c0.176,-0.176 0.376,-0.264 0.6,-0.264c0.24,0 0.432,0.088 0.576,0.264l0.24,0.264v8.64l3.864,3.864c1.792,1.792 2.884,2.9 3.276,3.324c0.392,0.424 0.588,0.716 0.588,0.876c0,0.24 -0.084,0.444 -0.252,0.612c-0.168,0.168 -0.372,0.252 -0.612,0.252c-0.16,0 -0.604,-0.348 -1.332,-1.044c-0.728,-0.696 -2.932,-2.884 -6.612,-6.564l-7.608,-7.584v14.616l-0.288,0.288c-0.176,0.176 -0.368,0.264 -0.576,0.264c-0.208,0 -0.392,-0.08 -0.552,-0.24l-0.24,-0.216l-0.024,-2.736c0,-3.248 0.008,-5.76 0.024,-7.536v-5.856c0,-0.464 0.012,-0.756 0.036,-0.876c0.024,-0.12 0.092,-0.236 0.204,-0.348c0.176,-0.176 0.376,-0.264 0.6,-0.264z"/><path d="M262.998,286.692v2.664h2.76l-0.024,-1.32l-0.048,-1.272l-1.32,-0.048zM344.462,284.844c0.112,0 0.264,0.096 0.456,0.288c0.176,0.192 0.264,0.4 0.264,0.624c0,0.144 -0.128,0.36 -0.384,0.648c-0.256,0.288 -0.936,0.984 -2.04,2.088c-1.168,1.168 -1.88,1.864 -2.136,2.088c-0.256,0.224 -0.464,0.336 -0.624,0.336c-0.24,0 -0.44,-0.104 -0.6,-0.312c-0.16,-0.176 -0.24,-0.344 -0.24,-0.504c0,-0.192 0.184,-0.52 0.552,-0.984c0.016,-0.032 0.124,-0.144 0.324,-0.336c0.2,-0.192 0.504,-0.484 0.912,-0.876c0.408,-0.392 0.756,-0.732 1.044,-1.02c0.864,-0.848 1.448,-1.4 1.752,-1.656c0.304,-0.256 0.544,-0.384 0.72,-0.384zM352.574,284.748c0.128,0 0.264,0.048 0.408,0.144c0.336,0.256 1.544,1.6 3.624,4.032c0.4,0.48 0.6,0.832 0.6,1.056c0,0.24 -0.08,0.44 -0.24,0.6c-0.16,0.16 -0.352,0.24 -0.576,0.24c-0.128,0 -0.248,-0.032 -0.36,-0.096c-0.112,-0.064 -0.856,-0.88 -2.232,-2.448c-0.832,-0.96 -1.384,-1.616 -1.656,-1.968c-0.272,-0.352 -0.408,-0.616 -0.408,-0.792c0,-0.128 0.096,-0.288 0.288,-0.48c0.192,-0.192 0.376,-0.288 0.552,-0.288zM267.39,278.508l0.024,1.344l0.048,1.344c0.24,0.016 0.592,0.024 1.056,0.024c0.464,0 0.808,0.008 1.032,0.024v-2.736zM262.998,278.484c0.016,0.304 0.024,0.756 0.024,1.356c0,0.6 0.008,1.052 0.024,1.356l0.456,0.024c0.032,0 0.096,0.004 0.192,0.012c0.096,0.008 0.184,0.012 0.264,0.012c0.208,0 0.504,-0.016 0.888,-0.048l0.912,-0.072l-0.024,-1.272l-0.048,-1.296l-1.344,-0.024zM349.094,278.22v2.736h6.456v-2.736zM312.526,275.58c-0.816,0.784 -1.704,1.664 -2.664,2.64l-2.64,2.616h5.328v-2.616c0,-1.76 -0.008,-2.64 -0.024,-2.64zM267.414,274.692v2.16h2.136v-2.16zM262.998,274.692v2.16c0.288,0 0.736,-0.008 1.344,-0.024c0.608,-0.016 1.056,-0.024 1.344,-0.024v-2.064c-0.304,0 -0.756,-0.008 -1.356,-0.024c-0.6,-0.016 -1.044,-0.024 -1.332,-0.024zM328.046,274.5v6.552h6.552v-6.552zM349.094,274.404v2.136h6.456v-2.136zM288.334,274.404c-1.536,0 -2.46,0.008 -2.772,0.024c-0.312,0.016 -0.476,0.064 -0.492,0.144c-0.048,0.144 -0.072,1.408 -0.072,3.792c0,1.44 0.016,2.224 0.048,2.352l0.072,0.24h3.048c1.952,0 3.024,-0.024 3.216,-0.072c0.112,-0.032 0.168,-1.12 0.168,-3.264v-3.216zM305.998,274.308v5.328l2.64,-2.64l2.64,-2.664c0,-0.016 -0.88,-0.024 -2.64,-0.024zM253.902,272.988c0.112,0 0.224,0.024 0.336,0.072c0.016,0 0.04,0.008 0.072,0.024c0.128,0.032 0.216,0.076 0.264,0.132c0.048,0.056 0.092,0.26 0.132,0.612c0.04,0.352 0.064,0.84 0.072,1.464c0.008,0.624 0.012,1.584 0.012,2.88v3.936l-0.024,8.52l-0.288,0.24c-0.16,0.144 -0.32,0.216 -0.48,0.216c-0.16,0 -0.344,-0.088 -0.552,-0.264l-0.312,-0.264v-17.064l0.216,-0.216c0.192,-0.192 0.376,-0.288 0.552,-0.288zM266.502,272.964l4.2,0.024c0.048,0.048 0.128,0.124 0.24,0.228c0.112,0.104 0.2,0.18 0.264,0.228v8.856l-0.216,0.288l-0.24,0.264c-0.368,0 -0.924,0.008 -1.668,0.024c-0.744,0.016 -1.3,0.024 -1.668,0.024v2.136h3.288l0.264,0.264c0.16,0.16 0.24,0.344 0.24,0.552c0,0.208 -0.088,0.4 -0.264,0.576l-0.288,0.288h-3.24l-0.024,1.944c-0.016,1.136 -0.056,1.776 -0.12,1.92c-0.112,0.288 -0.456,0.448 -1.032,0.48c-0.064,0 -0.664,0.008 -1.8,0.024l-2.472,0.024c-0.288,-0.224 -0.496,-0.392 -0.624,-0.504v-2.52c0,-1.68 0.064,-2.6 0.192,-2.76c0.096,-0.112 0.248,-0.184 0.456,-0.216c0.208,-0.032 0.784,-0.056 1.728,-0.072l1.968,-0.048l0.048,-1.032l0.024,-1.056c-0.432,0 -1.088,-0.008 -1.968,-0.024c-0.88,-0.016 -1.536,-0.024 -1.968,-0.024c-0.176,-0.176 -0.336,-0.36 -0.48,-0.552v-4.368c0,-2.144 0.008,-3.424 0.024,-3.84c0.016,-0.416 0.072,-0.68 0.168,-0.792c0.096,-0.16 0.256,-0.256 0.48,-0.288c0.192,-0.032 1.688,-0.048 4.488,-0.048zM318.998,272.844c0.128,0 0.412,0.2 0.852,0.6c0.44,0.4 1.42,1.36 2.94,2.88c2.208,2.208 3.376,3.312 3.504,3.312h0.024c0.048,-0.192 0.072,-1.272 0.072,-3.24v-3.072l0.48,-0.48h4.416c2.96,0 4.488,0.04 4.584,0.12c0.176,0.144 0.284,0.444 0.324,0.9c0.04,0.456 0.06,1.772 0.06,3.948v4.296l-0.264,0.288l-0.24,0.312h-3.216c-2.144,0 -3.216,0.024 -3.216,0.072c0,0.048 1.136,1.208 3.408,3.48c1.504,1.504 2.468,2.488 2.892,2.952c0.424,0.464 0.636,0.792 0.636,0.984c0,0.096 -0.088,0.232 -0.264,0.408c-0.208,0.208 -0.416,0.312 -0.624,0.312c-0.144,0 -0.596,-0.368 -1.356,-1.104c-0.76,-0.736 -2.948,-2.904 -6.564,-6.504l-7.608,-7.584c-0.016,1.632 -0.024,4.084 -0.024,7.356c0,3.272 -0.008,5.724 -0.024,7.356l-0.264,0.24c-0.208,0.16 -0.4,0.24 -0.576,0.24c-0.16,0 -0.344,-0.08 -0.552,-0.24l-0.264,-0.24v-17.136l0.264,-0.216c0.192,-0.16 0.392,-0.24 0.6,-0.24zM347.846,272.748h8.856l0.24,0.216c0.128,0.112 0.204,0.232 0.228,0.36c0.024,0.128 0.044,0.44 0.06,0.936v1.008v3.432c-0.016,1.552 -0.036,2.516 -0.06,2.892c-0.024,0.376 -0.076,0.62 -0.156,0.732l-0.192,0.24c-0.864,0 -2.16,0.016 -3.888,0.048c-1.728,0.032 -3.024,0.048 -3.888,0.048l-0.024,3.168c-0.016,1.168 -0.024,2.448 -0.024,3.84c0,0.432 -0.08,0.728 -0.24,0.888c-0.176,0.176 -0.368,0.264 -0.576,0.264c-0.224,0 -0.424,-0.104 -0.6,-0.312l-0.24,-0.312v-12l-3.696,0.072c-0.672,0.016 -1.568,0.024 -2.688,0.024c-0.8,0 -1.224,-0.008 -1.272,-0.024c-0.128,-0.032 -0.252,-0.14 -0.372,-0.324c-0.12,-0.184 -0.18,-0.356 -0.18,-0.516c0,-0.112 0.088,-0.272 0.264,-0.48l0.24,-0.312h1.272c1.632,0 2.92,-0.016 3.864,-0.048l2.568,-0.072v-3.264l0.24,-0.264zM275.974,272.724c0.208,0 0.4,0.088 0.576,0.264c0.144,0.128 0.228,0.396 0.252,0.804c0.024,0.408 0.036,1.812 0.036,4.212v2.904c0.72,0.016 1.804,0.024 3.252,0.024c1.448,0 2.532,0.008 3.252,0.024v-7.656l0.552,-0.552h8.88c0.224,0.224 0.384,0.392 0.48,0.504v8.856c-0.128,0.112 -0.304,0.296 -0.528,0.552l-7.92,-0.024l-7.896,-0.048l-0.048,3.216c0,0.304 -0.004,0.716 -0.012,1.236c-0.008,0.52 -0.012,0.868 -0.012,1.044c0,0.112 0,0.22 0,0.324c0,0.104 0.004,0.196 0.012,0.276c0.008,0.08 0.012,0.148 0.012,0.204c0,0.056 0,0.1 0,0.132v0.048c0.032,0.048 2.68,0.072 7.944,0.072h7.92l0.24,0.264c0.176,0.176 0.264,0.376 0.264,0.6c0,0.256 -0.096,0.456 -0.288,0.6c-0.128,0.112 -0.56,0.176 -1.296,0.192c-0.736,0.016 -3.216,0.024 -7.44,0.024h-8.496l-0.576,-0.576v-16.896l0.264,-0.312c0.176,-0.208 0.368,-0.312 0.576,-0.312zM296.614,272.652h17.112l0.48,0.48v8.904l-0.48,0.48h-8.136l-4.128,4.104c-2.064,2.048 -3.28,3.244 -3.648,3.588c-0.368,0.344 -0.64,0.516 -0.816,0.516c-0.256,0 -0.464,-0.08 -0.624,-0.24c-0.16,-0.16 -0.24,-0.368 -0.24,-0.624c0,-0.176 0.172,-0.448 0.516,-0.816c0.344,-0.368 1.54,-1.584 3.588,-3.648l4.104,-4.128v-6.96h-7.584l-0.312,-0.264c-0.208,-0.176 -0.312,-0.368 -0.312,-0.576c0,-0.208 0.088,-0.4 0.264,-0.576z"/><path d="M321.395,311.516c-1.408,0 -2.112,0.032 -2.112,0.096c0,0.032 0.008,0.056 0.024,0.072c0.08,0.112 0.816,0.848 2.208,2.208l2.064,2.04v-4.416zM306.043,305.804v10.536l0.672,-0.624c1.488,-1.44 2.728,-2.68 3.72,-3.72l0.864,-0.936c-1.728,-1.776 -3.48,-3.528 -5.256,-5.256zM298.315,303.284c0.224,0 0.408,0.136 0.552,0.408c0.096,0.176 0.144,1.16 0.144,2.952v2.664l3,-3c1.248,-1.248 2.08,-2.06 2.496,-2.436c0.416,-0.376 0.688,-0.564 0.816,-0.564c0.128,0 0.42,0.212 0.876,0.636c0.456,0.424 1.5,1.46 3.132,3.108c1.776,1.776 2.844,2.856 3.204,3.24c0.36,0.384 0.54,0.656 0.54,0.816c0,0.16 -0.176,0.428 -0.528,0.804c-0.352,0.376 -1.4,1.436 -3.144,3.18c-2.4,2.4 -3.696,3.64 -3.888,3.72c-0.096,0.032 -0.168,0.048 -0.216,0.048c-0.24,0 -0.432,-0.096 -0.576,-0.288c-0.096,-0.144 -0.144,-2.304 -0.144,-6.48v-6.288l-3,3c-1.328,1.328 -2.18,2.16 -2.556,2.496c-0.376,0.336 -0.628,0.504 -0.756,0.504c-0.192,0 -0.36,-0.088 -0.504,-0.264c-0.096,-0.144 -0.156,-0.404 -0.18,-0.78c-0.024,-0.376 -0.036,-1.452 -0.036,-3.228v-3.744l0.24,-0.24c0.176,-0.176 0.352,-0.264 0.528,-0.264zM279.147,303.116h14.448c0.064,0.048 0.156,0.124 0.276,0.228c0.12,0.104 0.212,0.18 0.276,0.228v7.632l-0.24,0.216c-0.112,0.112 -0.268,0.18 -0.468,0.204c-0.2,0.024 -0.732,0.044 -1.596,0.06l-1.824,0.048l-0.312,-0.264c-0.208,-0.16 -0.312,-0.352 -0.312,-0.576c0,-0.256 0.152,-0.464 0.456,-0.624c0.128,-0.08 0.64,-0.12 1.536,-0.12h1.344v-5.568h-8.904v6.768v3.048c0,1.792 -0.012,2.876 -0.036,3.252c-0.024,0.376 -0.076,0.62 -0.156,0.732c-0.144,0.176 -0.344,0.264 -0.6,0.264c-0.192,0 -0.352,-0.064 -0.48,-0.192c-0.08,-0.08 -0.132,-0.356 -0.156,-0.828c-0.024,-0.472 -0.036,-1.74 -0.036,-3.804v-5.712l0.024,-3.528h-1.656c-1.104,0 -1.736,-0.064 -1.896,-0.192c-0.144,-0.112 -0.216,-0.272 -0.216,-0.48c0,-0.208 0.088,-0.4 0.264,-0.576zM324.371,303.02c0.304,0 0.492,0.096 0.564,0.288c0.072,0.192 0.108,0.704 0.108,1.536v1.392h3.264c1.6,0 2.556,0.008 2.868,0.024c0.312,0.016 0.532,0.072 0.66,0.168c0.176,0.128 0.264,0.304 0.264,0.528c0,0.224 -0.088,0.4 -0.264,0.528c-0.144,0.096 -0.384,0.156 -0.72,0.18c-0.336,0.024 -1.272,0.036 -2.808,0.036h-3.264v2.208l1.416,0.072c0.768,0.048 1.872,0.072 3.312,0.072c0.912,0 1.468,0.008 1.668,0.024c0.2,0.016 0.348,0.072 0.444,0.168c0.096,0.096 0.152,0.32 0.168,0.672c0.016,0.352 0.024,1.456 0.024,3.312c0,1.824 -0.008,2.924 -0.024,3.3c-0.016,0.376 -0.064,0.62 -0.144,0.732c-0.128,0.144 -0.296,0.216 -0.504,0.216c-0.208,0 -0.384,-0.072 -0.528,-0.216c-0.112,-0.112 -0.176,-0.316 -0.192,-0.612c-0.016,-0.296 -0.032,-1.252 -0.048,-2.868l-0.024,-3.264h-5.568v6.552l-0.24,0.24c-0.128,0.16 -0.248,0.24 -0.36,0.24c-0.176,0 -0.492,-0.216 -0.948,-0.648c-0.456,-0.432 -1.516,-1.48 -3.18,-3.144c-1.632,-1.648 -2.664,-2.708 -3.096,-3.18c-0.432,-0.472 -0.648,-0.796 -0.648,-0.972c0,-0.096 0.064,-0.208 0.192,-0.336l0.216,-0.216h3.144c2.016,0 3.12,-0.024 3.312,-0.072c0.064,-0.016 0.104,-0.196 0.12,-0.54c0.016,-0.344 0.024,-1.252 0.024,-2.724c0,-1.504 0.012,-2.42 0.036,-2.748c0.024,-0.328 0.084,-0.564 0.18,-0.708c0.144,-0.16 0.336,-0.24 0.576,-0.24z"/><path d="M270.562,94.004l-2.176,0.128l-2.56,0.128v34.304h37.76c7.68,-7.68 13.44,-13.397 17.28,-17.152c-1.878,-1.877 -4.758,-4.715 -8.64,-8.512c-3.883,-3.7973 -6.763,-6.6347 -8.64,-8.512l-16.384,-0.256c-1.536,0 -3.712,-0.0213 -6.528,-0.064c-2.816,-0.0427 -4.736,-0.064 -5.76,-0.064c-1.366,0 -2.816,0 -4.352,0zM260.066,41.14h90.496l1.408,1.28c0.938,0.768 1.408,1.8347 1.408,3.2c0,1.024 -0.342,1.9627 -1.024,2.816l-1.024,1.28c-9.472,0 -23.68,0.0853 -42.624,0.256c-18.944,0.1707 -33.152,0.256 -42.624,0.256c-0.086,3.84 -0.128,9.6213 -0.128,17.344c0,7.7227 -0.043,13.504 -0.128,17.344h20.096c13.482,0 20.565,0.1707 21.248,0.512c0.426,0.1707 3.968,3.4987 10.624,9.984l9.472,9.472l10.112,-9.984c4.352,-4.2667 7.189,-6.976 8.512,-8.128c1.322,-1.152 2.41,-1.728 3.264,-1.728c0.512,0 1.194,0.2133 2.048,0.64c1.45,0.768 2.176,2.0907 2.176,3.968c0,0.768 -0.598,1.856 -1.792,3.264c-1.195,1.408 -3.883,4.2027 -8.064,8.384l-9.984,9.856l9.984,9.984c4.778,4.864 7.616,7.829 8.512,8.896c0.896,1.067 1.344,2.069 1.344,3.008c0,2.987 -1.451,4.48 -4.352,4.48c-1.024,0 -2.07,-0.448 -3.136,-1.344c-1.067,-0.896 -4.032,-3.776 -8.896,-8.64l-9.984,-9.856c-4.438,4.352 -11.008,10.965 -19.712,19.84h-23.552c-15.787,0 -23.979,-0.171 -24.576,-0.512c-0.768,-0.341 -1.323,-0.896 -1.664,-1.664c-0.342,-0.597 -0.512,-15.957 -0.512,-46.08v-45.184c1.365,-1.3653 2.389,-2.3467 3.072,-2.944z"/></g></g></svg>